<mxfile host="app.diagrams.net" modified="2021-05-11T04:57:21.263Z" agent="5.0 (X11)" etag="n5QAkFBB0Y1gTVky9nK4" version="14.6.11" type="github">
  <diagram id="C5RBs43oDa-KdzZeNtuy" name="Page-1">
    <mxGraphModel dx="3447" dy="1437" grid="1" gridSize="10" guides="1" tooltips="1" connect="1" arrows="1" fold="1" page="1" pageScale="1" pageWidth="2000" pageHeight="2000" math="1" shadow="0">
      <root>
        <mxCell id="WIyWlLk6GJQsqaUBKTNV-0" />
        <mxCell id="WIyWlLk6GJQsqaUBKTNV-1" parent="WIyWlLk6GJQsqaUBKTNV-0" />
        <mxCell id="OGA9XF_m5Bx5fPg7dGQ3-6" value="Vertical Container" style="swimlane;movable=0;resizable=0;rotatable=0;deletable=0;editable=0;connectable=0;" parent="WIyWlLk6GJQsqaUBKTNV-1" vertex="1">
          <mxGeometry x="770" y="10" width="200" height="221" as="geometry">
            <mxRectangle x="770" width="140" height="23" as="alternateBounds" />
          </mxGeometry>
        </mxCell>
        <mxCell id="OGA9XF_m5Bx5fPg7dGQ3-18" value="" style="shape=crossbar;whiteSpace=wrap;html=1;rounded=1;movable=0;resizable=0;rotatable=0;deletable=0;editable=0;connectable=0;" parent="OGA9XF_m5Bx5fPg7dGQ3-6" vertex="1">
          <mxGeometry y="90" width="200" height="20" as="geometry" />
        </mxCell>
        <mxCell id="OGA9XF_m5Bx5fPg7dGQ3-20" value="" style="line;strokeWidth=2;html=1;movable=0;resizable=0;rotatable=0;deletable=0;editable=0;connectable=0;" parent="OGA9XF_m5Bx5fPg7dGQ3-6" vertex="1">
          <mxGeometry y="149" width="200" height="10" as="geometry" />
        </mxCell>
        <mxCell id="OGA9XF_m5Bx5fPg7dGQ3-21" value="" style="line;strokeWidth=2;direction=south;html=1;movable=0;resizable=0;rotatable=0;deletable=0;editable=0;connectable=0;" parent="OGA9XF_m5Bx5fPg7dGQ3-6" vertex="1">
          <mxGeometry x="95" y="99" width="10" height="51" as="geometry" />
        </mxCell>
        <object label="{Â  } " placeholders="1" ChooseOrRejectList="{  }" id="OGA9XF_m5Bx5fPg7dGQ3-24">
          <mxCell style="text;strokeColor=none;fillColor=none;align=left;verticalAlign=top;spacingLeft=4;spacingRight=4;overflow=hidden;rotatable=0;points=[[0,0.5],[1,0.5]];portConstraint=eastwest;fontSize=20;movable=0;resizable=0;deletable=0;editable=0;connectable=0;" parent="OGA9XF_m5Bx5fPg7dGQ3-6" vertex="1">
            <mxGeometry y="48" width="200" height="51" as="geometry" />
          </mxCell>
        </object>
        <object label="Node Number (0)" placeholders="1" nodeNumber="" id="OGA9XF_m5Bx5fPg7dGQ3-25">
          <mxCell style="text;align=center;fontStyle=1;verticalAlign=middle;spacingLeft=3;spacingRight=3;strokeColor=none;rotatable=0;points=[[0,0.5],[1,0.5]];portConstraint=eastwest;fontSize=20;movable=0;resizable=0;deletable=0;editable=0;connectable=0;" parent="OGA9XF_m5Bx5fPg7dGQ3-6" vertex="1">
            <mxGeometry y="23" width="200" height="26" as="geometry" />
          </mxCell>
        </object>
        <object label="Weight: 0" placeholders="1" weight="" id="OGA9XF_m5Bx5fPg7dGQ3-27">
          <mxCell style="label;fontStyle=0;strokeColor=none;fillColor=none;align=left;verticalAlign=top;overflow=hidden;spacingLeft=5;spacingRight=4;rotatable=0;points=[[0,0.5],[1,0.5]];fontSize=20;movable=0;resizable=0;deletable=0;editable=0;connectable=0;" parent="OGA9XF_m5Bx5fPg7dGQ3-6" vertex="1">
            <mxGeometry x="100" y="99" width="100" height="50" as="geometry" />
          </mxCell>
        </object>
        <object label="Bound: Possible profit" placeholders="1" profitAchieved="" id="OGA9XF_m5Bx5fPg7dGQ3-28">
          <mxCell style="label;fontStyle=0;strokeColor=none;fillColor=none;align=left;verticalAlign=top;overflow=hidden;spacingLeft=4;spacingRight=4;rotatable=0;points=[[0,0.5],[1,0.5]];portConstraint=eastwest;fontSize=14;movable=0;resizable=0;deletable=0;editable=0;connectable=0;" parent="OGA9XF_m5Bx5fPg7dGQ3-6" vertex="1">
            <mxGeometry y="160" width="200" height="61" as="geometry" />
          </mxCell>
        </object>
        <object label="Profit: $0" placeholders="1" weight="" id="o33dY_JwKB8hvGENRaqP-5">
          <mxCell style="label;fontStyle=0;strokeColor=none;fillColor=none;align=left;verticalAlign=top;overflow=hidden;spacingLeft=10;spacingRight=4;rotatable=0;points=[[0,0.5],[1,0.5]];fontSize=20;movable=0;resizable=0;deletable=0;editable=0;connectable=0;" vertex="1" parent="OGA9XF_m5Bx5fPg7dGQ3-6">
            <mxGeometry y="100" width="100" height="50" as="geometry" />
          </mxCell>
        </object>
        <UserObject label="64+90+48+10=212" placeholders="1" name="Variable" id="o33dY_JwKB8hvGENRaqP-6">
          <mxCell style="text;html=1;strokeColor=none;fillColor=none;align=center;verticalAlign=middle;whiteSpace=wrap;overflow=hidden;fontSize=14;movable=0;resizable=0;rotatable=0;deletable=0;editable=0;connectable=0;" vertex="1" parent="OGA9XF_m5Bx5fPg7dGQ3-6">
            <mxGeometry x="10" y="180" width="190" height="41" as="geometry" />
          </mxCell>
        </UserObject>
        <mxCell id="o33dY_JwKB8hvGENRaqP-2" value="" style="shape=image;imageAspect=0;aspect=fixed;verticalLabelPosition=bottom;verticalAlign=top;image=data:image/png,iVBORw0KGgoAAAANSUhEUgAAAggAAAFJCAYAAAD+ENU3AAAgAElEQVR4nOydd1gUx//HzxJL1GiiKcYeNdHElmhii4YYWzTRWFGpKopURUBpitgioFiwI7ZYAEVQQECKBQQRRUVEERAsgPR+3B238/79cb8db7kCWCDmu6/nmQd2b3d2dnZ25j2fz+yMADw8PDw8PDw8NRA0dgJ4eHh4eHh4/n3wAoGHh4eHh4dHAV4g8PDw8PDw8CjACwQeHh4eHh4eBRpMIKSkpODhw4cqQ3p6ekMlRSlSqRRHjx6FVCpt1HTw8PDw8PD8G2gwgXDr1i14e3tDIBBg4cKFiIuLQ1xcHMLDwzF27Fh8+umnDZUUpezZswcCgQDr1q17J/Hv2rULEydOxKBBg/DVV1/Bw8OD83tISAgGDBiA1atXo3///oiMjFQZV1VVFZYsWYJDhw69k7S+bbZs2YJly5bVelx5eXkDpIaH5/UpLy8HIaSxk8HD0yA0qIshOTkZAoEA9vb2Cr998sknjdp7l0qlWLt27TuJ+/z58xg5ciSqq6sBAAEBARAIBNi4cSMAICYmBgKBAKWlpQCAnJwcCAQCFBcXK42vtLQU3t7edDssLAwvXrxAamoq7t+//9bSfe7cObx8+fKtxLVnzx61v1dVVWH9+vVv5VrvitmzZ6Np06ZvPd7w8HB89NFHbz3ed8GQIUPw4Ycf1vu8qqoqLFq0CD169IBIJOL8NmrUKHz11VeYO3cuAGD8+PHo3bs3xowZg+LiYkilUvz888/47rvvEBUVVafrrVq1Ch988AFycnLqdLxEIlEQ7SKRCOHh4Th79iyKioro/uXLlyvcAw/Pf5FGFwinT58GAKxbtw5lZWUNmZwGw9nZGQKBAPfu3QMAiMViCAQCfPvttwCAsWPHQiB49SgIIWjatCn+/PNPpfHVFAiDBg1C165d4ejo+FZFlqOjI5KTk2s9bv/+/bUeU5tAWLhwIRVQAJCZmVl7At8S9bFc9OjR452kwdzcvE7Hubm5vZPr1xVCyGsJhLFjx0IkEiE2NlahBy4UCtGkSRPOvp49e+LUqVOcffV1Q06cOLFOAuHIkSPw8/NDly5dOPsHDBgAhmEglUrRsmVLzm9Lly6tV1p4eN5HGkUg2NraQiKRIDg4WKHXuHLlSnTs2BECgQDa2toAgO+//x5t2rRBz549Ach6+xoaGhg3bhx8fHzQrl07XL16FQDw+++/o3nz5hg0aBDGjx+PAQMG0HiEQiG6d++O3377DUeOHEGHDh3g5+cHAOjatSsEAgEOHz4MACgsLMQ333yDuLg4HD58GAKBgDZgMTExaN68Ofbv3w9DQ0N8++23YBimzvmQlZUFgUCAyZMnAwAGDx6sIBCaNWuGr776Sun5NQXC8+fP63xtdbyO6ZQQgj59+qiMi/2rTiAQQjBv3jzOvkmTJtU7LaqQfzY179Hd3b1eAoEtg3WhPvm5fPnyWo8pLy/Hli1b3ug6b+O81xEIbdu2Vft7hw4dEBoaSrenT5+On3/+mW7XdKcpS3vNfZMnT66zBUEkEikIhCFDhoBhGBBC0Lp1a85vdXGZ8fC87zSKQBgyZAh0dXXRrFkzlWblTp06UQXfv39/VFVV0d/GjRuHzp070wohKysLzZs3h1AoBAD8+OOPaNmyJcrKyqClpYWpU6cCAPr27UsrAUIIOnXqBF1dXQAyE6O8QBgwYACnUXNycgLDMGAYBgKBAAkJCfS3kSNHwsjIqM75MH/+fLRq1Yqm98yZMxAIBPR+MjIyIBAI0LlzZ6Xn1xQI8fHx+Oeff2BnZ6f0eKlUCgMDA/z88884fvw4jh07hjVr1tDfxWIx1q1bhytXrsDa2hrV1dXIz8+nQgqQCbcffvgBHh4eCA0NhampKQBZA9uiRQu4u7sjPDwcALBx40bEx8fj/Pnz2L59OwD1AiEyMhJxcXF0+9ixY2jWrBnc3d1x9OhRALKyExwcjMDAQBrnixcvMGHCBLi7uyMkJITe/8qVKxESEgJ9fX2EhYVh9uzZAGSNcGRkJBwdHVFaWoorV66gY8eOcHV1hbu7u8r0WVpa4tKlS/D29saXX34JALhz5w4GDx6MmJgYCIVCaGlpYcqUKQCA6upqLFq0CFeuXMHSpUtVNsReXl7w8vJCcHAwpk2bRvenpaXh4sWLCA0NpYLg+fPnWLBgAaZNmwZ3d3cqehwcHBAcHAw3Nzc8e/YMAGBoaIigoCCV9wMAurq6uHLlCgwMDCAUCuHn54euXbsiOjoaly9fxp9//kmFk1QqhY6ODiIiInD06FG1AsHT0xN+fn7w8/OjeXrp0iVaRlJTU5Wed+bMGfzxxx8AgOLiYhQUFKBJkybUlM/mQ3V1NRYuXIhr165BS0sLUqkUhBAsXLgQkZGRWLp0KSoqKgC8EggFBQUYMmQI/v77b5XpViYQWJKSkhTe7wsXLnDcDjw8/0Ua1cXAMAwVCIQQnD17lh5bWFiIDz74AC1atOC8iFKpFE2aNMEPP/yAnJwcGgQCAR48eABAJhDYipyluLgYAoEAFhYWStNWUyDs3r0bAoEAAoEA/fv3R0pKCgBgzZo1EAgEePLkCb22lZUVxwKgjpMnT+Kbb77hmNMBQF9fH99//z3i4+Mxa9YstGrVCr1791YaR02BUFJSAgDIz8+Hvr6+0nMKCws5gsPGxgZXrlwBAE7axWIxrShjY2Nx8OBBALJnJW8G/vjjjyEWiwEA7du3p/uLiopgYmJCK/YDBw4AUC8QXFxcFBrRDz74gLM9YcIEXLp0CQDwww8/0P2ZmZlYvHgxAFARyYq+c+fO0evv3bsXJ06cACBrDNi8HThwoFoLwuzZs/H06VO6LZ+HLi4u1CdeUFAADQ0NAIC1tTVu3boFAKioqMC4ceMU4r158yYWLlxIt9l7AGRWsPPnzwOQ+edZEhMTORaEhIQEODk50W224U5LS0NlZaXKe5o0aRJevHhBj3VwcAAgs2SxY04uXLigNL+rq6tVCoR79+5hyZIldNvR0ZHGV5sFAZCVQ4lEQsXNsGHDkJiYCKFQiNzcXADAt99+S8vK5cuXERISggMHDiAmJobGM3r0aACvBEJISAgKCwvVXluVQMjIyMDff/9NyxFLYmIirSt4eP6rNPoYBPbFT0lJ4QgEQNYoCAQC2osEXvnvhw4diqysLE5g/e8//vijgim4oKAAAoEA1tbWStNWUyAAsi8vli9fju7du0MgEODatWtYvnw5BAIB0tPTOddm70MdZ86cgZWVFd2eNWuWwjFisRhisRhNmjSp0xgEtpEGZJWcKqFSWFiIrl270u3o6Gh88sknqKysVDiHbZxrCgT54z777DNqAZEXCACwYcMGNGnSBIMHD6YVszqBoMy8XlMgMAwDJycn+Pj4YMiQIXR/ZmamQty//PILvWZSUhIAmaDZvXs3AgICEBAQAFtbWwC1C4Sa9yYvPLdt26ZUIDRt2hTHjx+n19q8ebNCvFpaWoiNjaXb8g0rILPCeHl5Yfjw4XRfTYEwatQo2NvbK9xTbXTq1Imec+7cOWolGjx4MD0mNDQUQUFBEAqFnOculUpVCgQTExMqKgDA19cXY8eOBVA3gfDtt9/iwYMH2Lp1KwDZ+/L1118jJCSEioJWrVrRtHt5eSEyMhK9evXCwYMH6X72/MmTJ8PGxoZzX6pQZ0EAoDBAMjMzEzt27Kg1Xh6e95lGFwgs8+bNo70aQDaw78aNG/Dy8uJYBwCgX79+6NatG6fXmZqaSnsrygQCwzBo3bo1unXrxtnPVt41BULnzp05je+yZcuwceNGVFVVUQuCPIaGhmrvPSIiAkuXLkV0dDSioqLg6+uLiRMnAgDu3r0LgUBAB+YlJSVBIBCobLjkBcK0adNoI65ssBdLYWEhpwL08vLCuHHjQAhRGP/QvHlzAPUXCEuXLkVBQQGys7MByMTLTz/9BEC9QHBzc1MYFc4KBLbBadq0Kc2PsWPHgmEYFBYWIjMzU6F3FxgYCDs7Ozx69IjuGzFiBOfTUTauQYMGoaysTKUboHv37pwxDPIWBDc3N9poZGRkUIHw1VdfcUzpyp6jk5MTRxDLCwSBQEAH7LJjMV6+fIn79+9TgRAcHAxLS0v6fADUeWR9r169OBYs1iSvTCAA4Pjf1QkEJycnzpcAhw4doqKlLgLh0KFD+OGHH6irRCQSoUmTJti2bRs9pmPHjpxnVVVVhenTpyMxMZGzD5AJhMLCQnh7e1MRpIqaAiE2NpYjUsePH4/Vq1fT7du3b+P69eu13hMPz/tMgwmEgIAAuLu7QyAQYM6cOdRPeeDAAYwbN45+5nflyhXY2tpi5MiR1L/4zTffoFWrVvD29oZUKkVpaSk+/fRTWFlZoaCgAMHBwZg0aRIIIYiMjESfPn3w2Wef0QGILAkJCWjevDl27NiB4uJiODo60gbo7NmzEAgEMDU1RV5eHj777DOMGDECFRUVKCkpQa9evZCVlQVA5g9t3bo1YmJikJ+fj0WLFnEETE3CwsLQpEkT6rJgA2vNKCgoQIcOHVBcXIz79+/jk08+oV93KENeIMTExNAK/uTJkwqfarEUFhaibdu2tPKUbwx27dpFxw/s27ePNqTnzp2jlXN5eTlHILRt25Y2Yr169QIgc1u8fPkSc+bMoceZmZkBUC8QMjIycPz4cc6+AQMGoLi4mI4raNasGaqrqyGRSPDTTz9BJBLh8ePHiI6OhrOzM+fcn376Cebm5rC3t0d0dDQAmcAZPXo0GIaBWCymX16sWbMGV69eRUBAgNK0JScnw8TEBIBszEObNm2operatWvw9/cHIBuLwVo28vLy6JiCyspKhdH4gEyQfvnll3SU/MCBA+lgU9bUDgBjxowBIBORYrGYuiVYMf3jjz9CLBZz3HXDhw9XEE3yZGVl0QGyJSUlNI/69etHr/vPP//Ay8sLAHD8+HE6SDAhIQHNmjVTGi/DMOjVqxekUimkUilGjhxJf2vevDn9jFcV5eXlCgL3yy+/xOPHj+k2a9UDZOXmyZMnKC4upgMapVIpfQeGDRuGrKwsEELQtWtX+hWRMtLT0/HZZ59R8VFVVUXLrlQqRZs2bTgdhoMHD9ZrYDIPz/vIez3VMsMwSElJqfenfaWlpRy/sjLY0c/Pnz9X6T7Iy8t7a/MEADIrA/s1hjpqjkEoLCzE5s2b1bo5WBdDUVERFTryEEI4Ju/6cvPmTRBCaCN+7949OjYCqP0zx0GDBinsY/34LAkJCdS3np+frzSea9euce7DycmJ03t88uQJ8vLyOOekpqYqjAmRh2EYREdHgxCChIQEzpiYgoIC3Lx5E4DM8iMfT0pKSq2f7iYlJaGkpASPHz/mWNDu3LlDhZ98ektKShTSn5+fT3vd9SExMZEz+FcdUqkUMTExIITg9u3basc45Ofnv/YAvppCLT4+XulxcXFxCg30kydPahUh9YEQAk9PTxw+fFjBwjR9+vS3dh0enn8r77VA+F+lpkCoC/n5+Sq/imgIahMIJ06cUGj4Xofp06fThhWQmc/VjV7n4Xkd5F07PDz/VXiB8B5SWlqKo0eP0jEAtSGRSGBmZgZra2s6kr8hqaio4PiRVcF+ffCm+Pv7Q0dHB/Pnz38jqwgPT01YlycPz/8CvEB4D2EYBk+ePKnTlxP/BrKyshQGdfLwvI/wi7nx/C/BCwQeHh4eHh4eBXiBwMPDw8PDw6MALxB4eHh4eHh4FOAFAg8PDw8PD48CvEDg4eHh4eHhUYAXCDw8PDw8PDwK8AKBh4eHh4eHRwFeIPDw8PDw8PAowAsEHh4eHh4eHgUaTCC4uLjA2dkZzs7OcHV1xYEDB+iywPVl27Zt2L59u8oFe941NjY2CAkJee3zjxw5QleKawgkEgns7OzoCobvkry8PNjY2CispMlSWVkJOzs7latOvgukUikcHBzg6elZr/MqKipgZ2f3Vufdz8jIUPlbSEgILCws3tq15Nm1axfWrl37VhczAgB7e3u1K0fWlefPn6vNG3kKCwvV/m5nZ4fg4OA3TtO74v79+7CysnqrC72p4969e7CysuKsismyfv16mJubN0g6ANmS9KqWsVeFVCqli+ft27ePruZZH9atWwcjI6N6n/e2Wbt27Xu1NkyDWhDatm2LO3fu0O3Zs2dj8+bN9YojNDQUsbGxCA8Pp4XmXePr68vZDgsLg4uLyxvF2a1btzc6v74kJydj9uzZDXKt2NhY2Nvbq/w9OzsbCxYsaJC0yKOlpVXvcxiGgaam5ltLQ9++fZGZmUm3a5at10ljbZw/fx4RERE4ffr0a6+yyJKXlweRSES3i4qKMGvWrDeK09jYmC5Z/d1336k8Tl9fH/369YObm5va+JKTk//1lfCWLVvw6NGjBrvezp07ce3aNaW/tWjRosHSsWDBAsyfP79e50RHR9PlvAHZ0uGvg6plymvDx8fntc4DZIvkyXeEhUIhhg0b9trxNTQNLhDu3r1LtwkhaNasmcJSqurYunUrkpOT30XyVLJo0SLOdkRExBsLhO7du7/R+fUlJSWlwQRCfHy8WoGQm5v73ggEAG9VIMhTXV2tIJDf1oJV8piZmb22ta4mPj4+nCWi34ZA+P333+n/enp6SEpKUnmsm5tbrQLh4cOH/3qBsHXr1gYVCHv37lUpEFq1atVg6XgbvK5AeN3zfv3119c6DwCioqKQlZVFt3mBoIaaAuHatWsYNGgQAFlPbezYsViwYAHKyspQWVmJGTNmYNWqVbC0tMTmzZtx9epVjBkzBrq6uti5cycAICEhAX/88QdmzpxJ49XW1sbUqVOxf/9+aGtrIzMzE7///jvCwsJgaWmJCRMmAAACAwMxZcoUjlWjJmvXroVAIMCKFSvwzz//AHglEHbu3ImRI0dyTGYlJSWYMGECJz3K6N69O1JSUqCtrQ13d3cAQHFxMaZNm4Zdu3bB3NycmraTkpKgpaXFaeA9PDwwcuRIVFRUQFNTE6amppz4d+7ciUmTJmH9+vUAXgmEI0eOYPTo0bVaX1atWoV58+YhIiKC7tPS0oK+vj4iIyMxdepU3L9/n3PO0qVLoampiejo6DoJBDs7O0yfPh3FxcX0N0IINDU18ccffyAmJgYAcPfuXUycOBEXL15EdXU1Zs2ahXHjxgGQ9So1NDSQl5eH6dOnK/TInZycMHPmTFRVVdUqEExMTDB79mzEx8dz9ssLBB8fH0yYMAEPHjyAlpYWdaX4+flhypQpWLx4MT12zpw5sLGxwd9//w1HR0cUFhZi4sSJSEpKQm5uLj7++GOMHDkSK1asoGZzViAsWrQIc+fO5aRh8uTJCA4Oxvjx43Hnzh2IxWJoamrC2dlZ5T3duXMHgwcPxpIlS3D06FEAwJUrVzB+/HhOwz5v3jzo6enhxIkTWLZsmdK4jhw5AoFAAFNTUzg4OAB4JRACAgIwYcIEFBQU0OOFQiF++ukntQIrKSmJI8D37t2rtuzUVyBs3LgRmzdvRlZWFrS1tTF+/HgkJSXhjz/+4LghSktLMXv2bEycOJHuu3TpEsaOHQuJRII///yTI97Ky8uxYsUKGBoacsT+nDlzMG7cOIWVVjU1NTF16lRcvHgRwCuBUF5eDkdHR2zYsEHpQlDXr1+HhoYGCgoKMHPmTOjo6NDf5Os5tm5Q9v6w+RoZGQl9fX0sXLiQcw15gSCVSjFx4kRMmzYNgOwZTpo0CU+fPoWtrS3GjBkDqVSK4OBgTJkyBU+fPlX5HKqqqmBubg5TU1OMHj0aYrEYs2bNou+Ivr4+Bg0ahKysLMycOROHDx8GAOjo6HDuU0tLi1Ofyjf0SUlJ0NTUxLx58+i+gwcPYuTIkSCEcMQne56DgwM2btyI06dPAwAcHR2xbt06pfewYsUKWv+fOnWK7l+9ejWmTZum1m177tw5CAQCGBgYwMbGhubnsGHDEBcXh8mTJ+PBgwf0eIZh8NNPP3He+8amwQXCmjVr4OHhge3bt8PKygrV1dUAgD59+tAX5IsvvqDnfPfdd2AYBtu3bwcge7Hu3bsHAPDy8sKlS5cAyDK3X79+9LyPPvoIQqGQPviHDx9izpw5AGQ9t86dO1NT6eeff6423TUVdkREBIYMGUK3WUWYnJzMqXQ1NDRUxtm9e3fqD2ZfEEDmi2XP2717NwCgdevWIIQgNzcXkydPpnEMHjwYQUFBAGTjMq5evQoAMDQ0pELst99+g1gsRkpKCrp27UrPlf+/JlFRUTAxMQEAWFpa4vnz5/Q3+Xzr3Lkz3d+vXz/6/Hbu3FmrQJDPv0mTJtHxJN26daMWpQsXLuDMmTMAgJMnT9L/CwoK8NVXX9Hz27RpA7FYDADo0KED7eEOHz4cEokEgCyP1QmE7du3Y8WKFQCAhQsX4tmzZ/Q3toGLioqilcTo0aMhFApBCIGHhwdu374NQFZB9+nTBwBQVlaGnj17gmEYbNq0CQCwefNmKkhLSkqwceNGTjp0dXVx5MgRAEBcXBwOHToEQFZmO3XqRN+Xjz76iPZMpk2bptZ/b2ZmhpSUFADA6dOnkZCQQH/r1q0bGIZBZWUldXuxolIZH330kYIFQb4stWzZEgAgFosxdOhQul+VeffChQtYunQp3T58+DAMDAxUXr8+AqG6uhqWlpZgGAaArI5o3749LRPt27en5Wbw4MG03Mmb3PX19Wl+EULQo0cPAOC8hwMHDgQgq0fYZ9upUyf6PnTp0oU+t6ZNm0IkElGBUFRUVKs1cvbs2bhw4QIA2Rge+feOrefWrFkDQPX7s3fvXs5YmhYtWtD0sfVbdnY27bABoP+fPn2aI4569OhB8+2jjz5Sme5p06bRtLCiRCqVcvKuQ4cO9N0fPXo0Ta+3tzcdpyQUCjF48GB6DtvQE0JoeauqqkKbNm3oMX/++SciIyMREhJC71NeWPTs2ZOWA0tLS5X3AMjKiTxjxoyhZSozMxO2trYqz/31118VLAgff/wx3WbTX11dzVlGnN3f2DS4QFBm5mIYBv3794e3tze8vb0xbNgwupQx29tnkRcIffv25fz2448/IjU1FYCijz8tLY1WtgC3cevdu7fadCsTCCtXrqTbbIOwYsUKbN68md7Hhx9+qDLOmi4GttDk5OQoKMiqqiq8ePEC69ev56R72LBhtPAdPnwYx44dA8CtjNmXIyUlBSNHjqT71aWNEILq6mr4+vpi0qRJiI2Npb+xlaH8PQQHB+PPP/+k+0NCQmoVCPI9NV9fX2hoaOD58+ec50YIwSeffAIA8Pf3p5VHcXExRyAIBK+KcZ8+fWjZqWnKUycQGIaBVCqFj48Pxo0bx3FjsQIhLCyMVtS//fYbtRwJBAJaYQKyZ5meno7y8nKMGjWKcx0XF5daBQLLixcvqHWAYRjOfcqLhSVLluDGjRsq701eIHz00Ucci42GhgaSkpJQVVWFzz77TGUcLMoEwvjx4+n2Bx98AAAIDw/HH3/8Qd8F+bTLc+3aNY4gOHjwIMzMzJCamorHjx/j8ePHnJ51fQRCjx49aEUOyMqTfDp69OhBx2SIxWJIJBLs2rULTZs2pcfUdC+y79C6devQunVrzJw5k6ZPIpFAIpFg79696NSpE8RiMbKysjjXZJ8ZW4/VLB/K0NTUxIsXL+j28OHD6TOUf1/UvT979+7lWEx+++036ltn67eNGzdi+fLl9JmxIsfb2xvnzp2j5/7444/0fzZ+ZZw8eRKtWrXCb7/9hrKyMrpfXiDInz9jxgxaf4eGhtI6pKqqSqlAAACRSISSkhJs2bKFk89//fWXQnrkzzt16hS1CLOdLFXIC4TS0lLOdQghtMwrQ5lAYNsLALSsFRUVYezYsTTve/XqVetg3IbgXyEQKioqOINQ5Pnjjz842/ICoWYjO3ToUFrAevXqxfktLS2N9swA4Msvv6T/11UgsA1lREQENRkBrwSCqakprl+/rjYuFnUCQb5HJZFI8MUXX6CyshJCoRBffPEFrWSGDRtGXQWqBAJLSkoKx6KhTiCcPHmSqup9+/YhNjaWvuDyPX/2HmJjYzF9+nS6v74C4ezZs5gwYQLu37/PqeAYhlEqEGpaEFQJBPmKDFAvEDZv3owNGzYAkFlAHjx4QC08rEAoKSmBoaEhvL29sWfPHs715RvNdu3aUYEgXxkCqgUC20utj0BgG6b6CIQWLVpwBiqOGjWKCgT5HowqWIHA5k1RURHnHtnKMjAwkFpk1FFRUcExH69atQr79+9HQEAA/P394e/vzxFfdRUIy5cvR2JiIsctp0ogEELwww8/0EZYnUAYMWIECCF49OgRGIZBQEAAPf7nn3+m7qnBgwdDLBbj8ePHSsXR1q1bERUVhW3btim4xWqiTCCwFiP5ek7d+1NTIIwbNw5nz54F8Kp+W7duHa1D5PH29kZgYCDn+izqBEJ8fDwIIYiMjOSIT3UCIT09HYBMINjZ2QFQLRCqq6vRu3dvWh8KBAJq3axNIDAMg+bNm+PWrVucd1cZrEA4ceIEcnNzFQSCurENrEBg3xehUMixdLNl58WLF40yLqs2/hUCAZCZfNgHzb60ADB16lTOca6urlQgnD9/Hl5eXgBkPWV510RNgZCamqpSIMg3NspgXRDsyxMREYHVq1fT31mBUFBQgAEDBtD9x48fVxln9+7daQWfnZ0NPT09AIoCISgoiFZyOTk5+OKLL2hlP3ToUCoQPD09afpsbGw4+fzs2TM8evQIv/zyC92nTiC0a9cOFRUVAGSiJyYmBq6urgDAeVFZgUAI4eTnxo0b1ZrdcnNzOfFMmjSJ4yJgOXr0KK3UHj58SH2GXl5e6NmzJz1O/oXt3bs3FQjybqunT5+qHT0tX1HNmzcPDx48oI03KxAePnyIqKgohXO9vLw4/t6ePXuCEILy8nJMmjSJc6yzszMVA6WlpVi1ahUYhkFoaCgAcHyvz58/VykQOnbsWGeBYGpqSgfE+fv7c8ZYdKgIXekAACAASURBVO3aFYQQVFVV4euvv1YZB0u/fv1QVFREXVhFRUWce2QFglQq5Yjgy5cvq4xT/lmyLhlVbN26tU4CgRVwy5YtQ0BAAABFgdC9e3cUFRWhtLSU4yZp1qwZzdtFixZxGme2rpC3mrACp0mTJnRfq1atIBaLkZGRgc6dO9N7unXrFioqKuDq6oq0tDQQQtCtWze1jZSmpiYiIyMByBpL+bJas55T9f7s3buXjkFh08emiTVni0Qijpn+n3/+ASEE3t7eNA8BrkCQN5fXRL6+YV0ggGqB8Ndff6kUCPKuD7ZBLikpoa4LkUgEgUCA8PBwAOB0WGqexzJ79mwFAaiMTp06AQCtl+UtsSkpKXByclJ57vz585Genk7raaFQyBHirECoWYc+ffq0XoP33xUNJhDWrVsHe3t7ODg4KBUJUqkUmzdvxpEjR/D06VMIhULY2dnBzs6ODji6efMmbG1tYWNjQyvkmJgY7N+/Hzt27KACY+3atfRagKyitbGxga2tLVJTU2Fvbw97e3t4eXnB0dER9vb2cHR0VJn25ORkODs700F5dnZ2sLW1xfXr1+l9sX7b4uJiuLm54cCBA9THpQwfHx9ERETg7Nmz1DdYWloKW1tb2NnZccSMs7MzvLy8EB4ejgMHDsDHxwdnzpyBnZ0d7O3tUVJSQtOUlpYGQCYYDh48iKCgIDoPgp2dHcLCwmj+rF27VmnaKioqsGbNGnh7e6OsrAxmZmYoKiqi5+3evRsHDx7k5HFFRQXc3Nzg7e2NqKgo6Ojo0Je9JuXl5RAKhdTqIf89uFQqhZubG44dO0bHVACyBnLDhg04c+YM0tPTMX/+fJw/f55zL0FBQTRPqqurwTAMnJyccObMGRQWFkJLS4s2xDXJycmBg4MDTp06hfLyclhaWqKoqIg+jxs3buDatWtwcHCAq6srrK2t0bt3b9ozOH/+PA4ePIgdO3bQOO3t7TnlNz8/H3Z2dli9ejVKSkoAyD53O378OAghuHDhAr3es2fPaJl99uwZLbMnT57Epk2bYG9vjzVr1iA2NpY+W1bUyZOcnAxbW1vY2triyZMnAGSV7/79+6noA2QDt+zs7OhYCVVUVFRg7dq1tMFg7/Hw4cN07AlbroRCITZt2gRPT0/Op5E1efr0Kfbs2YNDhw4pDHyVx8nJCQ4ODnBwcFA7ToJNU0JCAlxdXWFvb4+IiAisWbMG9vb22L59O7y8vGhZAWSDTA8fPgwfHx88fvyYPrNFixbh+fPnOHnyJBwdHWmj6uHhQd9FtjcfGhqKXbt24ciRI3j48CEnL9evX4/jx4/jzp07uHPnDmxtbem1V61aBVtbW5XzumhqaiIuLg6nT5+Gs7OzynoOUP3+xMbG4vnz5zhx4gQdFC0fB/vMxGIx3Nzc4OHhgfLyclRVVdE69+HDh7SceHp6YteuXbC3t1fZQO7YsQOenp44e/Ysbt26RedAYcsi+zy2bNkCf39/+jwKCwvpcffv34eDgwNsbW3h7e2N3bt307JPCMGuXbvg5eWFq1ev4sSJE/Dy8qLP1tbWloo7BwcH2Nvbc8ZhEELqNPfGgwcPsGXLFs5YrN27d+Po0aNqO4GAbMyIra0tdWew+bdt2zZ4eHjQ9xqQWUTWr1+Pw4cPcwb7Nib8TIo8PHVE3ncIyHqDqixiPP8N6tLDfNfUdDHwvBmsVa62L814eIHAw1Nn0tPTsW3bNgQGBuLMmTNqrU487z8JCQn4/fffsWHDBoXPFhuKhw8fYsKECbCysqr3DIQ8ypk9ezbOnz+PysrKxk7Kvx5eIPDw8PDw8PAowAsEHh4eHh4eHgV4gcDDw8PDw8OjwH9CIOTl5f0rPgl5lxQWFmLPnj30E8d/K4cPH1Y79W9tVFVV1fpd8vvEu15Q7Pbt23Bzc6Mj22vj5cuXcHd3R2Ji4jtNFw8Pz/vPf0Ig9O/f/42WX35fuH79Oud75H8DZWVlnM8URSIR51vs+qKpqYmtW7e+1rn/xiV++/bty5m2+W1DCMGwYcPUfkZY8/gdO3bQ+UN4eHh4VPGfEAj/K9y5c+dfJxDY76tZCCFvJBDeBFWLDP3XGT16dJ0FAiD7hp8XCDw8PLXRYALB2NgYBgYG8PDwwO+//04blbt372LevHnIycmBiYkJ3R8dHQ1jY2M62ciRI0ewe/duOoGQi4sLtm/fjtzcXOjp6dEZtADZwkXLli2jM++JxWIsWbKETpJhbW3NWf1s06ZN2LhxIywsLFSm397eHhYWFoiLiwMgmwRk165dyMzMRGJiItzd3WmlGxMTAwsLC87sYVu2bMG0adNQVVUFExMTukCLo6MjdHR0qInY3t4eOjo6CAsLw6xZszgz5NUUCNu3b8fKlSvp+gBisRhr166Fg4MDli9fXqfnEhISAiMjI87MkGZmZrC3t8e1a9egp6encjKR8PBwtGrVCpaWlvR+WIHw8OFDLFy4kOYXi6amJoyNjTnT58pjaGhIZ3yzs7PD3Llz8fjxYxgbG3NWlty1axc2bdqEXbt2ITU1FW5ubhAIBHBycqLzxkulUhgZGWHRokWcz9QMDAzg7++Po0ePYtasWZwJhoRCIX7//Xdoa2vTZ1JeXo758+fDzMxMbUNsaWkJAwMDREdH01UqdXR0kJaWhuLiYmzfvp0uOpacnIzdu3fj8uXLIITA3NwcVlZWdKKg5cuXY9y4cbh9+zaWLFmidAZHltGjRyM3Nxd2dnYKazvk5uZCX18fK1as4EzyIy8QDh06hCVLlmDXrl0AZFPK7tmzB0eOHMHff/8Nd3d3XL58GRcvXsTu3bs5K9Dx8PD8d2kwgVBcXMxZ9Oivv/6iplczMzNs2rQJiYmJCA8PR0REBK1I79+/T1c1HDRoEJ2BLj4+ni5m4enpSSu8efPm0WPy8vLoqoQvXrzgrJ/ATvHp6upKK3355Tzl0dPTow2atbU1Hj9+DACYMmUKnj9/jtTUVI6Lo1OnTiCE4N69e5yFaPr06UMbTENDQyogUlNTYWZmRo9r3bo19cM7OzvTaWPlBYKRkRFnmuXbt2+jf//+NA51Ux2zHD58mE67W11dzZlqt1evXnQmSHUWgcWLFytYEFq3bk3zq23btpBKpaiuruZMJdqlSxely9tmZ2dz5hdo3bo1XVKWXdjmxo0b9BkDoI1qzUW1zMzM6KJLbdu2peNU4uPj6XLRwKvpo3NycjB27FgAQEZGBn755RdIpVJ89913AGSzOaqalvunn36i/8svEsSWa0Dm/5efnIVdXbRv3770G3f5+dgFAgFdlOfrr79WOTPn6NGj6QyRFRUVdBGzsrIyep9CoZBOESsvEGxsbOhiMiKRiK6RwS4WQwjBp59+Sq9lZWWlNA08PDz/PRpMIJSWlnIaiCtXrtD5tS0tLTnTgnbu3BknTpyAn58ffH196QqGmZmZdF58+SU6jx8/Tis8dt5sFnb+7ezsbKUCIT09HR9++CFGjBihsqcsEAjg5+cHPz8/nD59ms4FX11djTZt2nCm7wRkFXNGRgbWr1/PmWe+f//+dGpeJycn+Pn5AZBNBc2uvw5wl5+Wr6BZgcCuIMamydPTE66urjh06BA+/vhjzJ49W+m0u8ruS5527dpR0SG/EmLNPJVHmUCQj7dLly6oqKhAYmIihg0bRtP866+/IjMzUyG+nJwcjkCQX06WnfNfJBKhWbNm6N+/P0JDQ2nDX1MgiEQiEEJw4sQJtG/fnoqK27dvc9wR7BK+69ev51hsxGIxjh07hsmTJ9N0s8fWRH5+dfkG1cXFhQoEQghdGCwjIwMMw9Ala9n4jYyM6JTI8vk4YsQIldYL1oLA8sUXXyArKwtmZmZYunQpjZtddEZeIMjPvc9es6ysDHFxcfDw8EBpaSnGjx+PyspKvHjx4j8/GJiHh+cVjSYQrl69Slf4srS0pIu/ALIGUtVSlx9//DGEQiGnMZcXCB07duQc36xZMxBCVAoE1lx648YNzoIg8qhaqhaQ9VJ//vlnWnGKxWL06dMHEokERUVF6NGjB63Y+/fvT3uKTk5OdJlRdQIBeNWDZwWCVCpVuoJYTEwMqqurcfHiRc7CVaqoeV9t27alU7qOGDGC7q+LQMjNzaUNsjKBkJCQgClTptSappoCQd56wQqE7OxsALKFUrS1temzZwUCaxUxNTWlAxe/+uorFBcXg2EY3L59m7PSINvoW1hYcBZdAoA9e/bA0NCw1nTv3bsX69atg4uLC2cNCnmBAMisPX///Td27twJQPbVhqqFs15XIHTu3BkvXrzAwoULOfPus8gLhJrXFggEKCkpgUgkQqdOnRAWFoaKigpMnDiRrk/Aw8Pzv0GDCgT5Hp6+vj41HVtaWtIlcAEgLi6Os9CJvF91//79GDNmDCdueYGgoaHBcTHMmDEDgGyhnJUrV9L9rEAwNzenpturV68qXUluyZIlHJ85a851dnYGwzA4e/YsbdSOHz9OVyFLTExE9+7d6fH9+vWjAmHdunV0CdWaAkHeHH7gwAFs2bIFgEwgsOMNzM3NaUMplUoRFhbGachZF8P169c5wkieTZs24ebNmwBk1hD5xlh+xTZ1AsHa2hoZGRlISEiASCRSWHXwyy+/REVFBaRSKbUEATJrkDIrR05ODmcRKfm12FmBEBAQwJkmlbXosD13dlVLgUBAn2eHDh1QXFyM8vJy3L59mzNGgxUIz58/56zUtnPnTkilUmqyB0CXyK2JstXjAFkZYVcfBV6tHy8/nuLrr7+my2kLhULO8rUsw4cPVysQbt26BUBWFliBWVlZidGjR9PjWJfWwYMH6ftiYGBARaFYLMb3339Pj9fQ0KAuhfbt23PGv5SVlXHcZzw8PP89GtyC4ObmBldXV7rk7Y0bN6CtrQ0tLS3O4KeoqChs3bqVNsIs5eXlOH/+PN3OzMyEtrY2FixYgPz8fBBC4OTkRFd4lMfGxgYnT55EZGQkxowZg5UrV2Lv3r04ePAgfHx8cPjwYZXpX79+PQ4cOEAHcs2fPx/z5s1DdXU1fH19oaOjg8WLFwOQjQ/w8vLC5cuXYWJiAl9fX1hZWUFHRwd6enq4f/8+tLW1oa2tjdzcXOjo6EBbW5uONfj888+xZ88e7N+/Hz4+PvQ+tbS0oKWlRU3z7u7u2LdvHx2voampiW3btuHUqVPUZfPgwQMYGRmpvK9jx45h9+7dcHBwoPmsr68PHR0drF27FuvWrYOuri709fWVnl9ZWQk9PT14eHgAkI3X0NHRwZo1a7BhwwZ6zywmJibYu3cvHj58qBBXdXU1fZZpaWkwNjaGrq4uLCwssHfvXujo6EBHRwfXr19HaGgoTpw4gVWrVtHzb9++jbVr19JxHtHR0XBycsK+fftQVlYGfX19SKVSmt/+/v4wNDSErq4ulixZQvPZzMwMLi4uVKSxyzK7u7sjLy9PId3sp4MWFhYwNzfH+PHjYWxsjJycHGhra2P+/PmcMRM1BRshBA4ODjh06BAVjbq6utDV1cXGjRuxcuVK6OjoQFdXV+kzsLe3R0JCAk6cOIG1a9dy3peXL19i7dq12Lp1KyorK/Ho0SNa9liBvmXLFuzZs0dhhcRbt27RcSLh4eEcgSIUCunAVB4env8mjeZi4FFNTRfDm8IO1OR5Nzx79owjWgGui4aHh4fnfaTBBIKzszN69+6t9nMtHtmXFF9//TVOnDjxVuIrKiriVy1rAFatWoWwsDDExcXB09OTXwaah4fnvYefKImHh4eHh4dHAV4g8PDw8PDw8CjACwQeHh4eHh4eBXiBwMPDw8PDw6MALxB4eHh4eHh4FOAFAg8PDw8PD48CvEDg4eHh4eHhUYAXCDw8PDw8PDwK8AKBh4eHh4eHRwFeIPDw8PDw8PAoICCEoCGCvr6+0nDy5MkGuX5Dhdu3b0MqlTZ6Ov7t4cmTJxg1ahRu375d53MmT56MMWPGKOxPSEjA6NGjcfHixXeS1vLycjx//hyEECxZsgQjR44EIQQ+Pj70fz68WZg4cSKmT58OQggOHDiAESNGvHGcmzZtwvDhwxvtnqZOnYrRo0c3et42RiguLkZhYeE7vcbu3bvfSjnhg+rQYAKBEII2bdrg5s2bnH1z5sxp9Ex4m2HUqFG4e/duo6fjfQhubm64evVqvc5p06aN0v2XL1/GiRMn3kk6fX19YWRkRLebNWtG/2cbtYYMt27dqtNxFhYWDZamBQsWvHEcPXv2VPr/m4RRo0Y16LPx8/PjbLds2fKN4/T29m7Qe3idULPOW7FiBTZu3PjWr3P+/HnO9l9//VXvOGxsbF77+gzDICEhodHzu6FCowsEDw+PRs8EPjRO2LFjx1sTCFFRUe9MINQMH3zwAf1/xowZDZ5vyqwoykKvXr0aLE3t27d/4zjkRcFXX331VtLVkD14sViMM2fOcPa9DYHw66+/Ntg9vG6YMmXKO79GeXk53N3dOfvq+/5JpVIYGhq+dhru3r2LuLi4Rs/vhgqNJhD27dvHefBGRkYwNDTEqVOnwDAMbt26hVGjRiE5ORkGBgaIiYlRGe+zZ88wffp0LF26lJqsq6qqYGFhAQsLCxw5cgSEyMz/Y8eORVRUFBwcHDB37lxUVFQgLS2NHkuIrDdqamqKq1evory8HHp6erC3t0d0dDQIIdDS0sKvv/4KPz8/LF26FIGBgSCEIDk5GRoaGoiIiAAhBGVlZdDW1oaNjQ0919DQEH/99ReCg4NhYmLC6XGUlZVh3rx5MDExwYULF0AIgVAoxOLFi2Fvb69Q+agKIpEI1tbWMDY2Rm5uLvLy8mBsbIyTJ09CJBLB0tISpqam2Lx5M6qrq0GIrCe8adMmmsbffvtNZfzx8fEYO3YsoqOjYW5uDi0tLWpONDAwwPfff4+zZ89i8uTJIISgsrISpqamWLZsGfbu3UtdMDt27ICvry82btwIIyMjvHz5EoTIVPq2bduwevVqrF+/nqaREIIPP/wQp0+fhpWVFXx9fel+eYGwatUqGBkZ4fnz5ygrK4ORkRGOHz+u9F5cXFxgYmKCQ4cOwc7ODsbGxrhx4wbc3d1hZmaGnJwc6OjocCqiugoEoVCIVatWwdTUFPHx8bCwsIC1tTWkUinMzc2xevVqMAyD7du3w8bGBg4ODvReFy9ejB49eiA0NBTLly+Hp6cnCCFYv349mjRpAltbW+zevVvltQ0MDCAQCGBra4vY2FgQQlBRUQFjY2MYGhri0KFDal1hJSUlWL16NUxMTOj5hMgaQTMzM5iammLfvn0Qi8WYNWsWWrRoAVtbW6SmpiIxMREaGhq05zt//nwMGjSIxuHs7Aw7Ozts27YNDMPQ/coEgq+vL8zNzWmvb+vWrVi+fLla83V8fDzMzc3h6upKXQzJycn49ddfERUVhWXLliEkJAQMw+DQoUOwt7eHnZ0dGIZBXl4erK2tYWFhgby8PKxYsQJr1qwBIQQmJiaws7NTes3k5GR8+umnmDFjBmxtben+li1b4sGDB7CysuL0qMvKyqCvrw9bW1taXygLjo6OaNq0KWxtbeHl5YXy8nLMmDEDTk5O2LBhA+zt7UEIwaNHj2BgYAAzMzPk5eWBEIKCggLMmzcP1tbWuH//fp3r6VmzZsHa2hrHjh2Dnp4ep0FMTU2Fnp4eFixYgLS0NBBC8Pfff9M07tixA1VVVZgzZw5MTExACIGRkRF69+6NmzdvwsLCAs7OzjS+ly9fwtjYGAYGBti3bx++//57pWnKyspCv379MGHCBNja2tLnP2PGDBQUFGDNmjWYOXMmRCIRCJG1KStWrICZmRmuX79O4xk5ciQGDx4MW1tbVFVVqcyDtLQ0WFlZYfHixXjy5AkIIbh58yY6duxIn5t82a0ZwsLCYGtrCz09PVRUVIAQgmPHjmHgwIHIzMzEqlWrYGBgAEIIQkJCYGJiAmtraxBCcPDgQZibm+PZs2d1fmbvKjS4QDA0NISFhQW6desGQmSNgXzvIyIiAseOHQMhBLa2trCzs0Nubi5SUlKUxllQUEArH6lUii+//BKEEPTu3ZtWthkZGVi8eDEIITh69CgcHBxACEFmZiZ+//13EEKQl5cHLS0tGi9ryvrggw9oRcoeK5FI0LZtW7q/Xbt29P/t27dTX3jPnj0hkUhowSwvLwchBB9//DEtnGx6CSHo0qULJBIJGIZBixYtQAjBwIED6X1YW1sjNTW1TnldVlaGzz//nOYxK8jkfbJisZjmy5UrV7B69Wr6W58+fdTG7+zsjODgYBp/u3bt6D21a9cOEokEZ8+eBcMw6Nq1Kz0vNTUV69evByEygbB9+3YaB/sck5KS0Lt3b1oeDhw4QM9v2bIlzWtfX18al7xAKC8v51gaNmzYoPZe+vfvj/LycoWy6OPjQ8uGvK+zPhaEkpISfP311yCE4MGDB7RsHzx4EITIKvbPPvsMhMgaNldX11cvp0AAoVAIQggGDBgAsVgMQghatWpVpzLQtGlT+j/DMPQ6hBDcu3cPW7duVXnu4sWLERoaCkIIhgwZQvf37dsXJSUltHyz+z/66CPO+adOncLhw4dBCEFRURE6duxIyyWbZwcOHOBU3qosCB4eHggJCQEhMvHLCkllITAwkOYhwzD49ttv6W8XLlzAypUrUVpaivv376OwsJDmyeXLl2FmZkbTq6+vD0Jkfm620+Hi4qK2UdizZ4+CiG/SpAkKCgpoPpaWltJ7ZRuziRMn0rpBWWDzjg3Z2dm0Ib1w4QLy8/PpfUqlUvTq1QsSiQSdO3em5/To0UNtgygfHj9+zDn3008/BSEyEbRs2TK6X09PD0VFRSBEVqfJxyGVSjF37ly63a5dO5SVlYEQmVWHFTFffPEFPb5///5qRWtmZiZ27drF2TdjxgxcunQJhBDcuXOH1nMODg44evQoLUtZWVkgRNZJZBtmdaFv377IzMwEwzCce3Nzc6uTBaFFixZgGAb5+fkci9+QIUNoenfs2EHfsYsXL9I64cWLF7ScNHZoNAsC+/Du3bvHeYmLi4shEAjoQ758+bLaOM+fPw83NzfOPolEomBebd26NQgh+OeffxAUFARCCAoLCzmVH9tYnzt3DoQQpKenQyAQ4PTp0zh9+jRtTKVSKU0jIbIXmG3Ed+3aRQXCl19+Sc81MjJCVFQUCCG0wSCEoHv37iBE1pAMHjyYk+bCwkLO9V1dXetlku/cuTNyc3ORm5tLhQr7QtIC8P/3ER0dXS+B4OrqyumVzJo1i27LN6CZmZmcuIRCIb0ma0Fgf1u6dCkVA9nZ2Th37hxWr14NR0dHhedYM/01XQz9+vXDixcvUFFRQRtWVeHMmTPw8/NDRkYGZsyYgfz8fNy4cYP+np+f/9oCgRCZ1UMsFmP58uXo27cvCCE4dOgQ/T0nJwf+/v5wdHTkjBuQL2PDhw+nFfzrCIRHjx7hm2++odsVFRWc+GsGhmGQkpKCAwcOcBprVa6EmgLBz8+PCoSSkhJOI5eVlQUfHx/o6+tj//79dL8qgSAWi2meGxsbq73nb775hpZ1QgiGDRtG/w8KCqIVsvyzDQkJgZ2dHcaOHUvvvUOHDiBEJuTYBpLt4akKygSCQCCgomLs2LF0sKt83WBubk7rBmWhpkB4+fIlpk6dSrdtbW0xc+ZMGt+oUaOQlZWFAQMG0H3a2toqO1k1Q1paGqe8s+VtxYoVSExMpPtPnz5NLTs1BQIhhCMQ5MvHlClTaD506dIFhBBUV1djwIABatOlSiCw/z9//hxbtmyh26mpqThy5Aj69+9P2526CgSJRIL79+9jz549nLTXVSBUVlYiOjoaLi4unDp36NChVKx4enrSdlAikdByVtON0pih0ccg3L17l1oTCCHIzc3lCISax9cM58+fx7p16zj7qqqqaMMrf21CZAKBbcBrCoQ9e/bg+PHjdFxEVlaW0kq0rgJBlQ9YvqJm01lcXMwRSoQQlJaWqq3EawvPnj3DihUrOJaRmi/y2xIIEydOxIMHD0AItwHNyMjg9EbKy8tVCgR9fX34+/vDy8sLenp6IERWKTg6OuLp06cghCsQ5J9DTYFQUlKC+fPnc+5dVaiqqkLbtm1x4sQJVFVVYcGCBZy8eFOBcO7cOZw5cwaxsbGYN28eqqqqaEXr7+9PK9Li4mJYWFggIyOD82wIUS4QahtzwQqELVu24OHDh7QyZvNHXdkaPXo04uPjQcgrH3hZWRnatWun9Hi2El21ahUI4QqE/Px82sidOnWKulYuXLiA/fv3016oujEIGhoauHfvXq2m8u+//x6VlZV0u6ZAiIyMpNvp6en0+T179gxjx45Ffn4+vY/k5GTExsZi0KBBSEtLU2s9IIQrEFjzsHweywuE+owPYfNu586dIEQmEObPn09/37BhA8zNzTnn5OTkvPYI/7S0NM7YDba8mZubcyw+x44dg4uLCwh5Va/4+/vT3+siELZu3QoXFxds27aNWstUBXmBwD5HVQJh4cKFtO2YOXMmbt68ifLyco5AUNe29OzZk1qqWMuuRCKhAqGsrIw29DWDUChE165dIRKJUFlZiS+++IKK1qFDhyI7OxuEcAUCIQS6urrIy8tT63Jq6NBgAoFhGLRp00apUu7Xrx8tHO7u7rTytLa2VqusCXmlvNgHwJqYxowZg+LiYhAiq5TYHpuHhwf17+fk5GDgwIGc+Jo2bUoLLyEy83Nubi4IIbTCFIlEnBe/Q4cO9PouLi7UPaGpqUnjysrKQnFxMRiGQd++fWll07VrV/r/d999RysoNo2LFy9Geno6CJGZnlJSUlBYWKhgCVCV5/JpY+NjzVcPHjygZuaMjAwsWrQIhMgqtx49eqitEF1dXWkDUF5eTnvGUqkUzZs35xz7888/Uz9cYGAgHXexY8cO6u4Ri8W0B6GpqYmM/28k3d3dYWdnh1mzZoEQmUBgG4Bt27ZR8++l1SjtWgAAIABJREFUS5c4LxshMtMoWwZqC3379sXevXvpM2H9q4TIKuShQ4fS7WbNmlFT6LRp02q1UJSXl1Nhk5aWxmm0DAwM6PM9dOgQTE1NMXnyZDAMwyljQ4cOpe9Ihw4dUF1dTS1aqkLbtm1BCKFumB9++IHmnbe3NzV1KgutWrVCdXU1pFIpBg4cCLFYjMjISMybN4+O4k5PT6dlhL0W639PT0+nPaEzZ85QYdG7d2/6FYazszO2b99O381u3brR+OTdc2z56NixY62N9KNHj6gZXCwWo2vXrlS8+/r6ciwI27Ztw6lTp0CIrDc8YsQI6vIqKiqijV52dnadvoa4fPky3N3dIZVK6Tsmb0EYOXIkWH+2pqYmLWPZ2dlqyykrnFgLxrNnz+j7wIYuXbpALBaDYRjqYhk5ciQ166ekpKCiogIFBQXQ0NCoNQ/ly2jLli3BMAyKi4s5LspRo0bRMtmlSxdUV1dTi4JIJKJpZF2Q7Hnjx4+ngn/q1KlITExEUlISnj59qvb5Zmdnw8bGBhKJBFeuXAEhBH/++Sd9Fx8/fkzHebDPjmEY9OnTB9evX8ft27fx9OlTaGhogGEY+iyUhd69e4NhGFRVVaF9+/bIyspCXl4efHx8EBISgmfPnlE3Sc0QGRlJLTzp6en4/PPP6Ts+cOBA2ibs27ePuhUIkbVHrBXh3xIaTCAEBwcjKCgIQUFB1J8oH8LCwhAUFETNYFlZWQgMDERAQABycnLUxi0SiXDixAkEBwfTypphGFy9ehX+/v5ISkoCIbIGNiAgAIGBgaiqqkJgYCACAwNpz5cQwvF3yz9wX19f+mDZ827duoVLly4hMDAQQUFBnDSz6QgPD4evry/tUQQHByMwMBBXr15FbGwsPZcQWePq6+sLf39/6rckhODatWs4d+4cTadEIqmzylTmf4+IiMD58+c5g88IkTWyfn5+yMzMxObNmxU+2ZIPrq6uiIuLw8WLFxEcHExf7KCgIAQGBtLxCWwIDw9HYGAg53Oo1NRUVFZWIjg4GFeuXKE+WYlEgtOnTyM0NBRCoRBnzpyhFWhmZiZu3LiB0NBQOh4jLy+PPlf5a+7bt6/WBoUN6enptKKJj4/n+EKDgoIQEBCABw8eICoqij6ztLQ0+rzZtKsK8nM0nD59mv7P3mtISAiEQiF8fX1RXFxM8zEmJgaRkZGcclJSUoKjR49SMakqpKSk4NSpU1Scse9ZYGBgrT3x7OxseHl5ITo6GqWlpTh16hSkUikYhsGlS5fg4+ODjP8XcYTI5qLw9fWl+c0wDAICAnD+/Hm8fPkSLi4uuHXrFhiGgY+PD0JDQ1FeXo7jx4+jsLAQISEhCAwMxMWLF5GcnEzfMfkBqqx1oraQkZEBPz8/3Lp1Cx4eHjh69Chyc3MREBCAgIAAPHz4kPO+BQUFoaCgAH5+fpxeITswVCqVclxO6oKPjw99N0NDQ+k9paen03ti64bLly/D19cXmZmZauN8+fIljhw5gvz8fIhEIhpPzcGjISEhCAgI4FhQQkJCcO7cOdrJkUgknEGCygIbf1JSEuceCJG5poKCghAeHs4ZN1FaWgpPT09kZWWhqqqK5nVJSQkty5GRkUhISKDxC4VCmJqaIjIyEmFhYdiyZQvtpKgKAQEBCAsLA8MwuH//Po2roKCAXrOoqAgvX77E8ePHqZDw9vam73RYWBgCAgLU1g2JiYnw8fHBrVu38OLFC1qfSaVSnDx5kg46VxUuXboEf39/pKSkICoqCvHx8bhz5w7n3pW1b6oGwTZWaFAXAx/eXlD3bbREIsGOHTtQXV1NLRFvO7i4uNRrZHRDBtbsKe/n58P7GW7evInExEQ8fvy40dPyXwnyvdbGfrbyY8wYhsF3333X6Olq6BAbG4u0tLRa3emNEfiplt9DpFIpEhIS1P5ubGyMPXv2vJPrJyQkQEdHB2ZmZigsLHwn13gTli1bhp07dzZ2MnjeAhkZGXB0dERMTExjJ+U/gUQiwYsXLxo7GQAAQmTjc5ycnODs7IzNmzejoKCgsZPV4Dx8+BCbN29GVFRUYydFAV4g8PDw8PDw8CjACwQeHh4eHh4eBXiBwMPzH6asrKyxk8DzHvG/aOLnUQ0vEF4DXV1dLFiwoNGun56ejnnz5uHZs2dvPW5LS0v89ddfbz1eXV1d2NravvV4G5qVK1dCT09P6W/Z2dn0awY9PT2lxx06dAhz5sxBSUnJu00oAGdnZ5SXl79xPJs2bcLs2bNV/u7u7q729/eFRYsWYfr06Y2djAZFJBJh/vz5SE9PBwDk5ubi8uXLjZsoABcuXMDcuXPfSR3XEBQXF0NLSwuenp6NnZQ34n9eIBgZGdV6zI0bNzjb1dXV+OSTT95VkurExo0b8eDBgzeOhxCisK9ly5b1jicuLk7t74WFhfjll1/qHe+/kU8//VTp/h9++AFXrlyh2507d1Z63PDhw5GXl/dO0sby7NkzXLt27a3F17RpU7W/N2nS5K1d612xbNmyWo/58MMPGyAl/y48PT1x9+5dum1paYnq6uoGT0fN57Ns2TIkJyc3eDpeFycnJ8727du3YWVlVa84arY1jc3/vEDo0aNHrcc4ODhwthmGaXSB8Pfff78VgRAeHq6wr74CIS8vD9evX1d7TFFR0X9eINRElUD4+eef37lAWLBgwVut5P8LAmHWrFm1HtO2bdsGSMm/iyNHjnAEQmlpaaN8BVTz+Ziamr5XAmHw4MGc7bt379ZbIGhoaLzNJL0xDSYQtLW1MX78eFy4cAFaWlqIiIhAdnY2zMzMYGdnR4+TSCQwMzPD4sWL6ZTHIpEIU6dORUxMDFxcXOgKXmFhYVi8eDGnkXv58iXmzp0LIyMj5ObmoqSkBH/++SdcXV3h7u6OWbNmISMjAxKJBJMnT0a7du2wevVqpKamKk23u7s7mjVrhtWrV2Pv3r0AXgmEoKAgaGtrIzIykh6fk5MDTU1NLFy4UKX/Nz4+HqNGjaIrx82dOxcikYj+HhYWhkWLFkFPTw9CoZDuLywsxNKlS2FqagpHR0cqENjPGq2srBAYGAhA1oNcv349bGxs8M033yhNx+XLl/Hhhx9i9erVdGphAHQFOnNzczobHpu3xsbGmD17NvVVJiYmon379tDS0sLq1auVXgd4JRAuXboEbW1tTu+WXT1TX1+f5oO9vT0sLS2RlJQEkUgECwsL7Ny5EwzDYPny5bC2toavr6/K6+np6WHJkiUICAiArq4ubt68SX8rKyvDnDlzoP1/7J13WBRX24cxMSavMUaNqWrU2PImMcY30TRL1GhiiyXYsHfFgpFgARUQ1MSIioWqgIIURbEiSjQKisaGCEgXEBtFQDpb5vf9sd+czGxBl13YdfPc17XXtTO7O/PMzpk595wzc55Jk2p8XBQArly5giFDhmDq1Kmsuf7NN99EQkICLC0t4e7uDgAoLi7GkCFDRGVRKAjp6emYOnUqnJyc2L6vrq7G8OHD2Zj2Hh4eAIB79+5h4sSJmDJlCsrKylBRUYEffvgBWVlZWLduHYYPH/7ULopevXqJplNTU7FgwQJMnDiR/TYoKAg9e/ZEVlYWFi1ahMmTJ0MulwNQtCxdvnwZM2bMgLe39zMJQm5uLpYuXSoqBzKZDNbW1pg7dy4uXLgAQFEhLVu2DFu3bgWguPJasWIFACA5OZltu7DsCzl69Ch69OiBoqIiWFtbY+rUqUyGOE6RMG3u3LlYs2YNpFIpSktL8dlnn6Fz585Yvnx5jeLUpEkTnDt3DlZWViwLLL9cb29vLFy4EFZWVux/unDhAmbOnIn58+dDIpHg6tWr6N27N27cuIFffvkFY8aMQWVlpcb1jR07FkuWLMHvv/+OIUOGICkpCQAQGhqKL774Anfv3sXgwYNRXl6OefPmsf3q7u6Ozz//HACQnZ2NwYMH4+TJk3B0dMTo0aPZuYfjFCNZLlq0iA00BSgkYOHChZgxYwZ27NghEgQAeOWVVzTGzO8D/jwtkUgAAIsXL8aHH36Is2fPsoquuroa06dPx9KlS9VejADQuH8WLlyIa9euYenSpbCwsBCVTScnJ/z666/w9vauMU5/f39YWlpiwYIFbLnCc8O0adNEjxdmZGRg7NixmDt3LhuczcPDA+vWrYOTk5PGx20XLFgAMzMzLF++HKdPnwagEISlS5fC1dWV1Ts8e/bsgZWVlai1ZtmyZayuedp21Rf1JghSqRSvv/46ZDIZAKBp06bIzc0FAIwePRrp6ekAgO7du7M/rLi4GHPnzgUAnDt3DqNGjWLLa9GiBTuBvP/++2wdfIsAxymGywQUTT38wVRVVYV27dqx5bRp0+apsX/44YeiaT7bIr8tr732GuRyOe7du4cvvviCfe+DDz7QuMxJkyZh8+bNABSV7Pr16wEAnp6erMDy2egARaXWvXt39vs5c+YwQejatSs76S9YsABPnjwRmWhNVqqu2fXll1/Gw4cPAQAjRoxgYx28/fbbbJ/xQ+sCwJIlS56pBaFZs2Zs+j//+Q8ARQXy0ksvAVDsG/4/k0gkou/z29CtWzcUFhYCAFasWFFjRfnee++xfSQ84fHDJgOAj48PTp48qfb3ly9fhrOzMwDFCXHo0KEAgJdeegn5+fmiuABFOTt27Bib5gUhOTkZTk5ObP6bb77JWhAuXbqEL774AtXV1di/fz+ysrLw1Vdfse927doVgKIynzx5Mpv/008/adxuQHHPh5BGjRqhsLAQUqkUr732Gps/YcIEHDp0CACwf/9+uLi4AADCwsJEAvY0QTAzM2MnzxUrVrB9tHr1amzfvh0A2P8HAIMGDUJsbCwA4NSpU6iurkZsbKzovo1vvvlG4/o+/fRThISEAFCcG/j/feTIkUwyS0pK0KdPHwDAnTt3tG5ByMnJYVeADg4OSElJAaAQdRcXFzx48IB9XllZif/+978AAHt7e9jb2wMAEhISMHv2bI3ry8rKEl15jho1ilXWPXv2xOHDhxEdHc0q/HfeeYd9V3g+SE5OxoQJEwAojin+3BcaGgpfX18ACpGYPXs2ysvLRfLq4OCgIgjCMqKMRCJBw4YNAQAVFRUYM2YM+6x58+Z48uQJ9u7dCwBo164dOwbnz5+P+/fvq12muv2zcOFCdlEWERGBdevWAQDGjRvH9oWXl5dGyV+xYgUTLj7TL4/w3NC8eXMAivqDb+WUy+Vo1aoVMjIyEBkZyX5X01gF/H/Cc/PmTfzvf/8DIK53qqqq2H5MTU0VtVA3atRI4/INQb0JAj+2PE/Lli3ZDpo9ezbre+ErRB5+XP+oqCh2hQUAHTt2VHm/d+9e9OjRA/v27cO+ffvw6aefAlDsKP4mKqlUKjoJ1FYQ1G3L1q1bMW3aNLZ+fjx5dUybNg1xcXEAFAe3lZUVALADm2fAgAFISkrCnDlz2IkWUBR+XhBeeeUVts6lS5ciMDAQDg4OMDMzw6BBg2q8gtEkCDyTJk1iUsBximRaW7ZsQcOGDVFdXQ3g2QWBr+wA4MUXX2TvpVIp0tPT4ezsjJYtW4rWnZeXB7lczmJo2LAh29bly5fDz89P4zp79uzJ3vN9y3FxcSo3mPbo0UPt70eOHInU1FSV+a+//jp7/8MPP7D3sbGxagWhTZs2uH79OpvfqVMnJgh///03FixYwD5zdHTE4sWL2Ta2bt0aABASEoLDhw+z7z2tKXLp0qWiaf4/3Lhxo+gkNHnyZNy5cwcAcPr0aVbhmZmZsf8ceDZB4K/wnJycRE3DpaWl8PLywmeffSb6zbBhwwCAletFixbB2dmZbXtNXTndunVj67t8+TK72lc+Sbdq1QpA7QRBKpWy47xNmzYsrn379mHs2LEYMGAAbGxs2DxeaJ2dnXHixAkAipajwYMHa1xfdnY2hgwZwqbPnTvH5E8oijxCQeAvevj1CG+I4yvDl19+GS4uLizGd999F2vXrhUJ6/bt21UE4WndaBKJBLdu3YKDgwN69+7N5gu7XgsKCmBmZsbWbWdnp7GPXZMg8MdNTEwMu1+sQYMGbJkuLi5YuHCh2mUKz9GAQnpycnIAiM8N/Dln27ZtGDFihOj8zXGKDLgvv/wydu7cqfaeLR51gjBt2jQAqvVOdXU1Lly4gKVLl2LSpElsPgnC/6NJEDp37iz6HZ9JLCoqCrt27WLzO3XqxN7zghAQEIAff/xRZd03b97EuHHjAGgWhA0bNmiMnRcE/u5eTdvi6uqKjRs3alyOkGnTpiE+Ph6AWBCU74no27cvMjMzsWrVKlG/oFAQXn31VZXlx8fHQyaTISoqqsYbr3hBePz4MavwNQnCBx98wA6wJk2aaC0IwgqCF4QnT56gffv2rCy0bNkSZWVlABQnmI8++kjU3Ma3NjwLwhMs/x9ER0dj7NixbL5MJsPXX3+t9vdDhw5FcnKyynxhy8azCMJXX32Fa9eusfnKgiC8gnBycoKPj4/KOkNCQlj3EfB0QZg+fbpoumPHjigqKgKgEByJRAK5XI7Jkyezpk+hIDRu3BiPHj1iv38WQRBuAy8IU6dOxf79+wH8c0MwfzXcoUMHVFdXs3JsZWX1zDdWCq+6eUGQSqUi8QQUrV6AuAKKiIjQuFxlQeDvreBbKYUMGjSItb4IcXZ2Zq1S2grCn3/+yc5hTxME4fGUnp7OWgqAfwShadOmSEhIEC1j+/btcHBwEE0rC0LTpk01xpyTk8OSuQFA7969WUueUBD4dPXPgrr9s3DhQtbKpCwIz4Lyups0acLOZcL/lheEnTt3qoh1Xl4eqqqqkJeXh82bN2PNmjUa18cLQlBQEABFvTNz5kwA4nonLi4O3bt3ZxdckyZNYscmLwg1dZ/WJ/UmCHxqXp4WLVqwSmHmzJm4dOkSAMUVM19BJCcnY/Xq1QAUZu3p6QlAcSUrbEHo0KEDM7u3336bLXfPnj0AFEMD881gUqlUVKHyJ/FffvlFY+x8Uyd/tSq8shBui0wmQ9OmTdmBExwcrHGZU6ZMYS0ISUlJWLRoEQDFCYK/EpBIJCJh6Ny5Mxsj29zcnB08c+bMYSfkqqoqPHr0SFSBCLtmlLG1tWVXA3wSmZdffpn9nxYWFsjNzUVRURHbZv47fFPuli1bEBYWxv53dTx+/FilBYHjOMTHx8Pa2hqAQhZatmzJKhRAcVALK8xFixaxk1l1dTUePHigdn0cx6Fnz55sOxo3bsze86msAUWlpHwC5UlPTxc9vsefoF5//XX2+0GDBrH9ff36dRw5coStny9bjx49YvfZcByHRo0asS6cS5cuiR7/lMlkov+fHy47ODiYtSBwHPfUGz6VBYLv+qqqqsKLL76IjIwMlJaWwsLCgrUgREREsBNkTEwMa8KXyWRo0KAB2051CFsQHB0d2X8qnM9n0eNPoCEhIaJK7smTJ6yMA6jxEbFPP/2ULTcmJoZ9d9asWax74+7du6zZvaysjPXfa+pSAhQVI9/FmZWVxf7/I0eOiM4/Xl5eAP7p6uE4DuPHjwegaLLnWxDS0tJEEqlMdnY2S/0MKJ5w4R/t4zMnCnnrrbfAcYqkQXyGRABISUlh/wHHcUwQ7t69y8oXx3HsPMinXwYU9w4oP4XEdwGqIzg4mLX6FBQUoFevXizNMp9FkadXr1548uQJAMUjlPzjlMqo2z/z589n3QfR0dGsuzkwMJCJuFQqZX3+ygQGBrL7HvgUzPz/IDw3tGzZkr3v0qULe+/q6oqEhAScP3+e/Y6/kFMH3y3zxx9/AFDUO7yoC+sdKysrFn9sbCwsLCxYPdeoUSNwHIc5c+ZoXE99Um+C4OHhAQ8PD5w6dQp+fn7w8PCAl5cXUlJS4O7uDnd3d5Y6NDAwECEhIThz5gwARUXp7u4ONzc3pKSkwNvbGx4eHggLC8OhQ4fg4eHBrjKrq6sREBCAkJAQFBYWoqysjC3/9u3b8PLygoeHBwICAgAo+j/9/f1rbDrKz8/HH3/8gVu3btW4LYCiIOzZswfBwcEoLy9Xu7y0tDQWkzA+vhXl1q1bCAgIQHBwsOiGquLiYvj7++P48eM4cOAAVq9ezW4WPHz4MAIDA3H16lU2feDAARw7dkx0JaiMVCqFs7MzO5ACAgLg4eGBvXv3IioqisUGAGfOnIG/vz/Cw8ORlJQkumLZsmWL2qspHk9PT7i7uyM0NBQHDx6Eh4cHy5wZEBCAgwcPIi4uDkePHhU9KpicnKzyLP/x48cRGBhY4yNBnp6e8PDwwMGDB1kZ4fdRdXU1/P39WUbCmsjIyMDOnTsRGhoKANi3bx9b1uXLl9n/c+/ePbi5ubGU0XwZ4U9et2/fxv79+xEeHo7Vq1fDycmJlWt3d3fRDVwSiQT+/v4IDg5GZWUlqqqqWPnPzMxk2yZsUVCGT4PLEx4ejsDAQERFReHixYsIDQ3F+fPn4e7uDg8PDxQWFrJYsrKyAChuwDt48CDOnDmD+fPn47ffflO7roiICLa9+fn5LNaHDx8iLy8Pbm5uOHbsGEpKSrBx40ZWpuVyuWhfA2AZHkNCQjTeTHjlyhUWKx+3m5sbu9E4PDwcQUFBKuUxICAAgYGBGv8zQHHVFxERgaNHj6rcVBcXF4egoCCRwD569AhBQUEICQmBXC4XHdvV1dXw8PCAu7u7xpYRvgXh0KFDCAoKYsIbExMj2kaehIQE+Pv7IyIiAps2bcK6deuQm5sLNzc3uLu7Iycnh+0Lvu88JSUFISEhrAwDinsm/Pz8cOzYMZw+fRp2dnbs/oDy8nJ2D4U6+Bs2Dx06hDt37iAgIAA3btyAr68vW7ew7B04cADBwcFPfRRauH+uXr3KymZFRQX7H/kuv7/++gtBQUEab3zkiY6ORkBAAA4cOMDO8cJzw+HDh0XnhrKyMlZ/lJeX4+HDh7h+/ToOHjwo2u/quHnzJjw9PZGbmys6r6enp4vqHY7jsGPHDhw+fBgPHz6Et7c3u1fiwYMHcHNzq/OnnJ6Vf/1jjgRhity6deupT2gQhke5i8EYsLe3Z92HxL8bEgSCMFFWrFhRY7cPYXhWrFiBgQMH4ujRo4YOBYCiKd5Y+r8Jw0OCQBAmDI2tT2iDsaSCJowDEgSCIAiCIFQgQSAIgiAIQoXnVhAePnyIZcuWiYbQ5dm2bZvGMbAdHR1haWlZ6/Xyz67qysaNG0VDTNclxcXFoqGcn5X09PQan+74N8InYHnWptjffvtN6/HY9cXdu3exbNkyvTcb1zQ+vpOTk8aBa56Gg4PDMyVPU0dKSgpsbGzYExh1QX5+PmxsbGp1LNWWwsJCrFixAmFhYfW2znXr1ul0jgQUj4ju2rVL45MvuiKTyWBra6vxfglbW1scOHBAr+vMysqq8VFfbdi1axcWL16sl2XVJc+tIACKMd01jTUgHO1OGV0ytvn7+9c6HbJybgbh0J91Sfv27WuVdrRx48aiR5Nqeozx38SmTZvYIFfqUB7+2ZCJvUJDQ9njufpAeQwQACqVl3Awn6eh/AirLiPJBQQEiAakqg1PSy/s4uLCxmmpL65duwY7O7t6Xac2A5Kpo0WLFpDL5SoDD+mTkpIS2NjYqP2sNpkUn8b777/PHr3XB8rJnYyR51oQ9u7dWytBMETGtr///psNGMJTX4KgDyorK9lAMf92tm7dqlEQEhMT2ahoPIYUhLCwML0KgjJFRUVs3H2eZy3X6o6J2qQa5wkODtZZEPhBbjSxZcuWeheE2NjYehcEXYf81UYSa0tpaalGQYiNjTVYy92zIsylYazUmyA4ODjA3t4eV65cwdq1a2FnZweO47BmzRpW+FNTU9G/f38MGjSI/W7q1Kksp4Krqyu+/fZbNgqdsiBcuHABI0eOxJEjR54qCBcvXsSECRNUhl11dnbG5MmT2SiMykyYMIElX/ntt9/w+eefo6CgAJMmTdJ4cgkPD8cLL7yA+fPnY8mSJWz+e++9h8zMTIwZM4aNwAcoBsrp378/LCwsWFIgIdevX0f//v1RXFyMsWPHsmGkAcUIjT169EBwcDCGDh2KkpISDBs2jA0MBfyTeEiY0Mfc3ByWlpbYtGkTbGxskJCQgIEDByImJgZPnjzBu+++i379+mHJkiUoLy+HnZ0d1q5dyzL0OTg4iIZvFZKcnIwePXrg5MmTbDAbOzs7lgPhzJkzGDBgABtNE1CM029hYcEGjrGwsGBD1m7atAlffvkl+25FRQV69uwp+h9qQiaTYfz48Rg+fDgbhKayshJDhgzB5cuX4eDggD59+qg8Ivjzzz9j8uTJGgXh0qVLeOmllzBv3jzRfm7RogXi4+Nhbm4uSvwil8sxbNgwTJ48WW03QEVFBQYNGoTCwkKsXLkSvXr1EsWUlJSE77//XnS88EyaNAmjR49WEQQrKytMmzZN7SBLDx48wNq1a7F69WqkpqbCycmJjdnv4OAAR0dHhIeHsxHvkpKS8OKLL+KHH37AkiVLWPPre++9h/LycowbN07j0OPR0dF44YUXYGlpiSVLlqhkEh01apRKjIMHD8b48ePVHhPAP4Iwffp00fj2gKIy6d27tyix0J49e7Bs2TIsWrQIly9fhpubG8zMzLBkyRI4OjqqXQcvCPPmzVPbkjho0CB88803rJwHBQXh22+/BaAYTfTHH39kCX+mTJmCcePGISoqCsOHD1cpUwsXLsS4ceNw8eLFGgVh3rx5GDZsmEjUpkyZglGjRrEkeDKZDObm5hgzZgxCQkIwYMCAGruKGjVqhIiICIwbN07lqnnv3r2YNGmSxpTQS5YsQePGjbFkyRI2+N2wYcPw448/snXu3bsXffr0QXp6Oh4/foxhw4axhHWTJk1C//79kZaWhmHDhqmMfLl8+XKMHDmyxhYEXhBWrVqFQYMGsdZb/rzFj0Kr6byVmZkJKysrzJs3D4sXL0ZWVhZ++OEHnDp1CoAiC+eCBQtw8uRJ9O/fH8nJySgsLIQ53GiJAAAgAElEQVSFhQUbffPx48cYOnQojh8/jpkzZ6qMbsoLwvHjx+Hs7MxGvPTx8YGTkxOys7PVblt9Um+CkJqayg6UyMhIVmEdOHAAEokEp0+fFqVN/vDDD1miI+Gwn9999x07mQoFwcXFhTWHcxz3zC0IcXFxbHxtS0tLNoLVsWPHNI5UJzwhv/rqq2y9v/zyi8ahf7t27apytfTKK6+wTIl81i9AkR+CP9kqJ6/i+eWXX9ioY1VVVaLsbA0bNkRpaSm7xyE/Px87duwAoMg5IWzW5SvawsJClt+C/9369evZPjlz5gzLrAYoTjjCrhpNtn7w4EGW50I5o5owMZWDgwPOnj0LjuNYVjxAkYuioKAAEolENLy2cDx2YdIa5bH41bF8+XKWefDdd99llZNyxlA+R8OjR4/w/fffs/kWFhYaWxAsLCxUWhAaNWrEypUwVj4LqHBdynh5eWHWrFlsmq+UDh8+zEbNBBTHi0wmQ3FxsSi52Jo1a5gg9OnTh3V/bNmyhWXEExIfH88qx2XLlrGRJjdu3Mj+J+HQweHh4WpbEPjROwcPHswqKWVsbGzUtiDw/1/Xrl1RUVEBuVwuyi7Ys2dPtQnIgoODRcm73nnnHVRWVuLx48cYMGAAm9++fXs8ePCAjcJXVlbGyoMwiY86tmzZIhr6m88dI5FIROeczZs3s2GFhXkc9u/fzyoZQJEUiW+REB7DnTp1YiNJenl5aRSEHj16sHMInwl1w4YNrNIbOHAgyydSXV2N1q1bQyaTgeO4GltSGzVqxNZ/4sQJduw7OjqynDTh4eEam9yF2VOFwxf7+/uzCt/c3JyNIPjnn3+ycwi/v/nz/+uvv47q6mrI5XJR2b59+3aNgiA8p44ZMwbFxcUq+Tr4NOPKCI93Pi43NzfWnVZQUCDKCty4cWO2v4cPH87+u4SEBNF9NS1btmTnAmELQkBAAPz9/QEo8j9okuD6pl67GPiKfsiQIaxi4q3xf//7HyvogMKA+RObMHfC999/r1YQhGO+A8/exVBVVQUzMzNwHIcXX3wRAQEBCAgIwK5du1h+BGWUBYHHwcFBo/WpEwRh0zNfQSQkJKBTp04sDk3NUNbW1qIbsgYMGMD+P+V7LIqKipggKI+x/vHHHwNQjIOvnJDmjz/+0CgIAES51PkDXRkzMzPW4gOIK3BhYq5169bh7NmzKCoqQrNmzdj2z507FydPntQoCDExMRg6dCj7/rMmhwEUQ662bNmStSIoZwzlW66WLFkiGu99zZo1WgmCsCzyme/u3LmD//znPyzugQMHql3e7t27RcPJ8lchfOXJM2XKFGRnZ8PFxUVUYfv6+uLWrVvgOA4NGjRg63N2dha1KvHweTYARR4IvpVHeCIVJh/SJAg8s2bN0jjEriZB4OnTpw+ePHmCuLg4vP322yz2UaNGqb0ZMTg4mFX0ADB37lwcP34cfn5+mDt3Lvs9379uZmaGl19+WTRk+LMIglB4Zs+ezYYIF1YEcXFxbL8L86mEhoaKBEF4DPDH3+nTp1maakBx7GkSBD4ZlTIcx2Hfvn3o0aMHa7WSy+WislhT15dyFwN/XAmPTT77oTp4QUhJSWEtTjz8cTx58mR23jh37hyriDmOEx3Hbdu2RWFhIXJyclgGUEBxzqpJEIStSGFhYSzd+I8//shGGVWXrRVQpJQ2MzPD1KlTmdx4e3szQVDOTivM5GhhYcHGH0lMTGRD1QOK1oFt27YBEAuCRCJh+5L/3BioV0FwdHTEkSNHkJSUhDFjxqCqqoo1xXXq1Ek0qMv48ePVCkLfvn31KgiVlZVo0KABS6LzLOhLEISpjXlBuHXrltosbsooC0K/fv3Y1Z5ydkehICjffMSfoJ48eaKSjleTIPBXoTKZDN27d8emTZs0xvnKK6+IckFoEgR7e3smCML/hUeTIERHR4ua85+F2bNns5PmZ599hsLCQpb5UpgxlBeEtWvXik7q2gqCMPsjLwgZGRk1Zszj2b17tyhfAS8IH3zwgSjXx/jx45GVlQVvb29R9xgvCFKp9KkZGXnMzc1x584dxMfHo2PHjsjJyRE9zaJOEGQyGTuWtRWEwsJCtZlEeUG4efMmS7RTE8qCMGvWLERERMDHx4eNtc/Dy/T9+/exZs0a1irAC4Km+zaUBWHGjBlITU1FSEgIS+0LKLoB33rrLQBiQVBuQRBeEfOCcP36dVEyrpoEQV1a5rVr1zLRdXR0RGRkJJ48eVJrQRBmrxWW5ZrgBeHy5cui1jG5XM5aKoWCEBkZ+VRBePDgAavkAe0E4eDBg6wLUiaTYeDAgTV226SmpqKyshKHDh1i5VlZEITnS+F5tSZB8PDwwO+//w5A9R6EsWPHori4WFQ+DE2936T48ssvQyaTISYmRlQRRkdHix5ZETb9CiuMRo0asZTDQkFwdXUVHdQ1nXyFgpCeno6tW7cCUNxTwFeycrlc1FwpRHi1J6yM7e3tNQrC4MGDkZmZyRKiAMAbb7zB3gv/izfeeIPJjnIaVh5ra2t230J1dbXowK1JELZu3Sq6yYq3+ydPnqjcVbtx40bWhPj333+zrhhhi0CPHj1E908oc/LkSdGVqlAQ+KtTQHES4Ncl7KsrLCxEeno65HK56EQr7GJo1aoVe89X/Dk5OZg4caLamMzMzFhffqtWrfD48WM8evQI58+fF6WW5gUhPz+fZfQEFGmgNVUgS5YsQUpKiuhRWHUtCICii4FvilSXVhpQCALfpAv889+cOnVKdCLhj5fKykpRpbFkyRKWNXTs2LFs30kkEtYPq8yjR49YGvRLly6pCKtQEOLi4lhiIr5/WdhUPnPmTI2CsH79ehQXFyMxMVGtIPTu3ZtJtXCbEhMTVZ4UARSCwGegBP45vqqrq9G+fXs2/+DBg7h165YoK+iWLVsAAP379wegSMqlji1btog+E4qLsFJdvXo1i3HgwIFs+2bMmIHw8HD2vS5durD3whY84Tlv48aNooyfQr755ht2TikuLgbHcaLj5KuvvsLp06exY8cOyGQyUVls3ry52mUqb8uJEydYzOHh4aInojQlMBLuR+ENi7///jsrDw4ODizr57x581hGXWVBeP/991krn7Bs3bx5k2WCVSY2NlbUVTlmzBhRt9THH39cY/IooYjwEufl5SUSBOH5sqYWBOGTHA0bNmSPySoLQk5OTr3c3KkN9S4I/IEIQKUC/vvvv+Hm5oaNGzeKbsa6cuUKvLy84OvrCxcXF8yZMwf379+Hra0tVq5cyU56u3btwoEDBxAZGYkxY8ZofMQmKiqKZfhSfnRv//798PX1FfUzCrGzs8PKlStx6tQp7N69G3Z2drCzs0NsbCxWrlyJFStWiLpKhNjY2LBUtxs2bICdnR1Wr16NiIgIti2VlZWQSCTYuHEj/Pz8WCpeZaytrXHjxg3s27cPGzZsYP119vb2sLOzw6pVqwAo+rNWrFghaiI+cOAAvL29WfcOv122trZMlm7dusW2h2/Ktre3h4+Pj6il5syZMxqzVvKEhYXBx8cHYWFhIkG4d+8e/vjjD+zZsweRkZEsNSqgOCnu2bOH3QQJKLIG7t27FwcOHMCoUaOwYMECAIqb+datW4fdu3ezg6+kpETjM/UJCQnYtGkTAgMDUVZWhuXLl6OsrAwrV67EypUrcePGDXbzLC8MfJY1f39/BAYGYsaMGRq3V3h/yLp162BnZwcXFxcEBgbC1taW3eMhl8tZl4C6lNOVlZVsHyQlJbF9xDeJ8xn/lI+XJ0+ewNXVFYGBgYiMjMS0adNYv6evry/27Nnz1PH2+ZsTKysrWbpbQHGDq62tLUtPy3EcVq9ezf6n1atXw9bWFg4ODrh48SJWrlypcbwPqVSKxYsXsyyDq1atgp2dHbZv3w4vLy/Y2tqKrvL4ssILjzK3bt1CXl4e9u7diy1btojKaWlpKX7//Xd4e3ujuroad+/exdWrVxEcHAx3d3f23aKiIvz6668qWSZ5zp8/j7KyMvj7+2PTpk2ipEYcx7FyKxRIqVSKtWvXwt/fH5cvX8aUKVOQnJwMBwcH2NnZYdu2bexcwh+3FRUVcHFxwf79+3HhwgVMnjxZbapkjuOwbt06+Pr6suymmZmZsLW1RWBgICorK7Fs2TLIZDJ2rjpy5Agr3/x+VObChQsICQnBwYMHVW4S5FPS833myvD7kS9DEokELi4u8PX1Fd03U15eDmdnZwQFBSEuLg6TJk1CYmIiVq9eDTs7O/z+++8IDg4WlQOZTAYHBwfs378feXl5mDRpktpMmXwrs4+PD/z8/EQXZoDiXghN2UIBRfejr68v9u3bh4KCAvafrlixAoWFhexY3LVrF1xdXdm+u3HjBjuXFxUVITExEa6urqzu4s+Vbm5usLOzU7lBsqbziiF4rh9z/Dej3MVQ3/B36mpq4tPEs9xEqC+elp6VIIh/F3zXS10N4KSMcheDOlJTU1FYWIiUlBSjG5iOBOE5JD09HSNGjICVlZXG1oq6ZsKECQgNDdVqZLF9+/ahW7du2Lx5cx1G9g/qrrgIgvj3MnHiRBw4cEBvIyLWRElJCaytrTF+/PgaHymNiopCYGAgjh07VucxaQsJAkEQBEEQKpAgEARBEAShAgkCQRAEQRAqmLQgVFZWqiSD0Se7du3SOBKXMREVFQV7e3tDh0EQBEE8R5i0IMybN0/0PKu+EY46Z8xwHKdxxDOCIAiCUIdJC4K+4Z8zFvI8CAKgGB2PIAiCIJ6VehOEO3fuwNnZGatWrRI1dy9cuBDTp09no8XJ5XIsWrQIM2fOZIO7AIrhcYODg7Fv3z6MGzeOjbAWEBCAkSNHory8HL/88gtbtlQqxfz589lgOsuWLcPgwYNRWFiIefPmqYxDv3DhQlhaWuLYsWP46aefVOK/dOkSXn31VTg6OsLR0VGUfe7evXtYvHgxG2VLuMxJkyaJxGLr1q1Yt24d3Nzc2IiG8fHxmDdvnsZugAsXLmDMmDGQSqVYvnw5Fi9eLPo8LCwMM2fOVBl0QyKRYO7cubC1tVURhNmzZ2Pp0qVsQBFN+4cgCIL4d1JvgjB69Gj2nq+0W7ZsyUYAfOGFF1BVVYWVK1eyITA7duzIKuL4+HjRMLXC4US7du3KRmPz8/NjI2tJpVLROOBvvPEGqxB79erFMi/yQ2bKZDK0atVKJc0vz7x581Tmvfzyy2yY3CFDhqCwsBAcx4mSqBw9ehTnzp3DtWvX2HelUimKiooQFRXFRppLT09n43QrM2zYMJZO+urVqyxngJ2dHZOl8vJylu0vMzOTdStwHCcaFrRx48ZsG/mhltXtH4IgCOLfS70JwsCBA/H222/Dzs4OEokEd+/eFY23zY+Tzaf1DAwMRNu2bdlAQLdv3xYlQxGOzS6s/E6dOoUTJ06waaEg8MlTAEW2Lj5RiHAsf+U8BkI0CQLPpEmTkJubi+TkZNEY64WFhXjhhRdQWlqKxo0b48MPP8SFCxfAcRw6d+6MvXv3IiwsDAcPHtSYne2nn35iwwgnJibC2dkZgGp2Rl6chg4dKhoCmR8///79+zAzM0NYWBjCwsLw888/A1DdPwRBEMS/m3oThAcPHqCsrAzbt2/H+++/j6SkJFHCHR4bGxuWH6Fv374oKCiAVCrF7du3RRW0PgSBH93K09MTLi4ucHJyEmWUVIZff2FhIatE1QnC1atXRZkHHz9+DDMzM+Tn54PjOKSkpMDc3BzHjx9Hhw4dRF0pmhB2e/CCIJPJVIYu5pPsjBw5UjROPC8Id+7cUZsSWXn/EARBEP9u6k0QpkyZwt6/9tpr4DgOTZo0YUNexsbGoqysTJRpr0uXLsjPz0d6ejoSExMxd+5ctgyhIPBZ9wBFQh+hIAgz0QkFYezYsUwQJk+e/EzbsGzZMgCKLGLqss9NnDgRubm5kMvlokxphw4dwunTp3Hu3DmWLRJQ5P1OTEwUic+GDRvUrludIADAokWLWDKlsrIylo0uLi4OM2fOZL9R7mLgE5Xw2SeV9w+gyCR49OjRmv8UgiAIwiSpN0HYuXMnvL294eXlJUo3bGNjA19fX1y5cgWAQhT47GQlJSWYN28eqqursXDhQixYsACHDx+GnZ0dFi5ciKVLl8LHxwcLFizAwoULER8fj/nz58PS0hIZGRlYsGABLC0tERcXBysrKyxcuBDLli1DWFgY+41MJoOjoyPs7e1ha2uLkSNHsrzkykgkEkydOpWlmF69ejUWLVoEW1tbBAcHY8GCBaL+e3t7e+zevZsJS3x8PEJCQhAUFMTuJwAU2QVdXV2xbds2tWOE//XXX2xbcnJyYGlpCUtLS0RHRwNQjMfg4eGBtWvXin6XkJAAb29veHh4wM7OjuVDBxTZ+vz8/Nj9Hur2T3R0tMaUwARBEIRp869/zDEnJwdHjhwRzevRo4eBoiEIgiAI4+BfLwgcx8HGxgbnz5/H33//DU9PT7XjHRAEQRDEv4l/vSAQBEEQBKEKCQJBEARBECqQIBAEQRAEoQIJAkEQBEEQKpAgEARBEAShAgkCQRAEQRAqkCAQBEEQBKECCQJBEARBECqQIBAEQRAEoQIJAkEQBEEQKpiUIJSXl9f6txzHITc3V4/REDwymQw5OTmGDoMgCILQgnoTBKlUildeeQWhoaFsXkZGBpo0acJSJ+vCzZs3RSmgn4WCggL2nuM4UWpobXnw4AE++eSTWv++tLS01r/VFT7tdV1RWlqKDh061Ok6CIIgCP1Sry0Ir776Kq5evSqa99Zbb+lt+dokWZLL5fDy8hLNGz16tE7rFwqHNhQXF7N014agefPmdb4OEgSCIIjnC6MThISEBNy+fZt1F9y+fRvXr19Hfn4+EhIS2Pfi4uKQkJDAWh/kcjl8fX3Z50lJSUhOTkZqaqpKHFVVVdi8eTPWrFmDtLQ0SCQSAApB4DgOSUlJKlfVKSkpSEhIQFFRkdptS05ORlxcHAAgNzcX169fh1wuR1JSkiiGsrIypKWlsfklJSWYMGECDh48iLS0NHAcBwC4c+cObt26hby8PPbb27dv4+bNmygrK8OtW7fw+PFjUQzx8fGIjY0ViUpqamqNcZ87dw5mZmZIS0sTtWIkJCTgxo0bKC4uVvs7AEhLS0NycjIyMzPZvOLiYsTGxiI+Pl70XV4QMjIykJWVhQcPHrDtzMjIAKAQrFu3buHOnTui5clkMo0xEARBEHVDvQvC8OHDMW3aNPYSCoK5uTmys7MBAF9++SUkEgnu3r2Lt956C8nJyXjjjTcAACNGjEB+fj44jsN///tfcBwHmUwGuVwOAJg+fTqraC0tLVXiqKqqwvXr17F+/Xrk5uayCmj06NGwtbWFXC6Hq6srTpw4AQBwc3PDzZs3AQB9+/ZV2x3w4MEDtG/fHgDw5MkTvPvuu/Dw8IBcLseGDRtYH7yVlRUARZfLggULUFJSgs2bNyMiIgK5ubngOA4pKSlYtWoVOI7DlClT2H+SnZ2NNm3aMFH6z3/+w7Zz9uzZrGJt2bIl5HI5tm3bhj///BMcx2HUqFFq90lubi7MzMyQm5uLqqoqAMB3333HhMLe3h75+fkqvztz5gzu3r0LADh27BgA4OHDh/jtt9/AcRwKCgowbtw49n1eEHJyctC4cWMmN2vXrkVSUhKys7OxdOlSAMDevXtx8eJFAEDjxo3Z8gmCIIj6w2haECoqKmBmZoZHjx7h0aNHcHZ2RnJyMgCgUaNG7Pv37t3D66+/zr5nbW2NtLQ00TJnz56NqVOn4urVq6isrFQbS3Z2NrZv3y6aJ+xiSExMxMaNGwFAFFdCQgI8PDzULpMXBABo27Ytq1hDQ0MRGRkJQNGc7+rqitTUVHalv2vXLlEXQ0VFBRISEvD48WN4eXlh/fr1ABT3SZiZmYnWUVRUhJKSErRs2ZLNv3TpEgCgYcOGLG5vb28cPXpUbdzCZWZmZqJNmzZs+v79+2jatKnKb86dO4fu3bvjzz//RFlZGQDggw8+EH2ne/furCVI2MUwZ84cXL9+nb3nf3vhwgUWb9u2bdXGShAEQdQPRiMIGRkZMDMzQ15eHnvxV/ZCQYiNjUW7du3Ufk9IZGQkZs6cKarshAgFgb9aVhaE33//HQBU4tIkHcqCwBMaGopTp04BUHQx+Pn5oXv37rCxsQHwjyDIZDJUVVWhoKAA/fr1w+3bt3H48GE4OjoCUC8IhYWFyM3NxUcffaQST6NGjURxa7oZlF9mRkYGIiMj8dlnn7HPioqKROsUcvPmTaxatQqvvvoqSktL0aJFC9HnPXv2xLVr1wCIBaG8vBz//e9/UV5ezuTCzMwMN27cYLEqd58QBEEQ9YvRCAIANG3alDWZSyQSPHz4EADw0ksvse9IJBI0adKETZeXl7P+bJ4xY8aw93v27FHbRH737l1s2bIFcrkchw8fBqBZELp37866LwDF1bM6niYIMplMdBXfvXt3AIom9cuXL+Px48fIzs5G//79kZSUBADw9PSEg4MD3N3dNQqCVCoV/SfV1dW4d+8e3nzzTVRUVABQyEVMTIzauPlljh07FhUVFXjhhRfYZ3/99RemTp2q8ptdu3axLgmJRIKQkBD89NNP7H4LjuPw/vvvs+8rty60bdsW8+bNY9Nr1qxBeHg4m+blLS0tjW0DQRAEUX/UmyDMnDkTzZs3x6BBg/Dnn38iKioKY8eORYsWLTBr1iwAwKNHjzB27FgcPnyYVYhTpkxB06ZN2XcARTP42LFjERoaKroxkefHH3+Eo6MjwsPD4eTkpDYeiUSCb775Bl5eXigrK8OePXvQrl07WFhYICUlBf369UP37t2Rnp6OkpISDBkyBAcOHICjo6NIFnhmz56NN954A46Ojti3bx/efPNNjBkzBvfv30evXr3w7bff4u+//8b06dMREBAAd3d3XLhwAQBQWFiIAQMGYOPGjZDL5bh8+TLGjBmDo0eP4tKlS+jYsSNiYmIwefJkNG3aFMuWLcOOHTvQvHlzJkMZGRkYNGgQDhw4AB8fHwCKey0mTpyIw4cPY8uWLRr3zfDhw+Hp6cluNkxMTISlpSWCgoJgY2OjtoVm9+7dWLlyJSIjI/Hrr7+y/2TFihXw9fWFpaUlu9Fz7ty5eOutt2Bvb89+HxsbKxICmUyGFStWYPfu3Vi3bh1KSkoAKO75MOQTHgRBEP9WTGqgJIIgCIIg9AMJAkEQBEEQKpAgEARBEAShAgkCQRAEQRAqkCAQBEEQBKECCQJBEARBECqQIBAEQRAEoQIJAkEQBEEQKpAgEARBEAShAgkCQRAEQRAqkCAQBEEQBKECCQJBEARBECqQIBgBBQUFyMnJQU5ODqqqqiCRSNg0n6mytLQUOTk5uHv3rl7XrZwCWjgtkUj0ui5AkeUxNTUV58+f1/uyCYIgCP1BgmAEcByHjh07itJI+/j44LPPPmOZFDmOw+DBg/Ho0SO9rPP06dNYt24dfvrpJ9H8fv36oXPnzvjoo4/w66+/6mVdypSUlKBLly51smyCIAhCP5AgGAk9evTAmTNn2PSGDRvw2WefsWmpVIqHDx/qfb3KgrBhwwa9r0MdJAgEQRDGDQmCkfD999/D09MTgOIK+9KlS+jYsSP7fOvWrXWyXnWCwHEc8vPza/zd9evXsXfvXhw/fpzNO3DgADw9PZGfnw8fHx/Ex8eLfnPhwgX4+voiPz+fBIEgCMLIIUEwEubMmQMbGxsAgIuLCwDgnXfeAQBkZWWhuLhY42+Dg4MxYsQIja+aUBaEMWPGQCqVorKyEt27d9f4uy+++AIAcObMGfj7+7P577zzDnJycgAAn376KZtvbW2NrKwsAEBaWhoJAkEQhJFDgmAkbNy4EaNGjcL9+/dRVlYGAGjSpAn7rK5QFgQhzZo1Q2JiotrPbt++jZycHHh7e8Pc3JzNf+2119j7r7/+mr1v1aqV6PckCARBEMYNCYKRcPDgQXz99dcICAhg88zMzBAUFPTU35aXl+PevXsaXzUhFASO49C1a1c23apVK1HrAI9UKkWrVq0gkUiQkZGBUaNGQS6XAwBatmzJvicUhHbt2omWQYJAEARh3JAgGAlxcXF44403RI8ZmpmZiZ5s0IRUKsWTJ080vmpi+PDhoumTJ0+y940bN1b7+wULFsDX1xcAcOXKFYwcORKhoaEAgDfeeIN976uvvmLv27Vrh8rKSgCKeyw6d+781O0iCIIgDAcJgpFQVlaGAwcOiOYJ+/D1zezZs9GhQwd06tQJ3bp1Y5V3cHAwQkNDMXHixBqfmujevTt8fHwQGRmJrl27ws/PD1999RU6dOiALl26YOPGjfjggw/Qvn17lJaWQi6XY8CAAfDz88P58+fRpEkTLF68uM62jyAIgtANEgSCIAiCIFQgQSAIgiAIQgUSBIIgCIIgVCBBIAiCIAhCBRIEgiAIgiBUIEEgCIIgCEIFEgSCIAiCIFQgQSCMHisrK5iZmdGLXs/diyCeZ6gEE0YPCQK9ntcXQTzPUAkmjB5eELZs2WLoUAAAffv2NXQINZKZmWnoEGrE3t4eRUVFhg6jTiFBIEwBKsGE0UOCoB0kCIaHBIEwBagEE0YPCYJ2kCAYHhIEwhSgEkwYPSQI2kGCYHhIEAhTgEowYfSQIGgHCYLhIUEgTAEqwYTRQ4KgHSQIhocEgTAFqAQTRg8JgnaQIPxDWFhYvaxHGRIEwhSgEkwYPfoQhBMnTiArK0sv8ZAg6EZ9CsKoUaPqZT3KkCAQpgCVYMLo0YcgXLlyBdXV1XqJhwRBN+pLEB48eIATJ07U+XrUQYJAmAJUggmjh7oYtIMEQYGLi4vepFBbSBAIU4BKMGH06CoIERERaNu2rd7iqa0gHD58GAMGDMD8+fPx4MEDTJ06VW8xCamNIDg6OmLEiBFsun379gCAmTNn4uTJk/oKDUDtBCE2NhbR0dE4e/YsjoHdMocAABwUSURBVB07ho0bN6KwsLDG33z//ffs/d69e3H9+nX89ddfAABra2sAwM2bN9GhQwftNuAZIEEgTAEqwYTRo4sgLFu2DJWVlWjWrJne4qmNIMTExEAul6N58+ZsXsOGDQEAHMfB3t5eT9FpLwjZ2dkAwCpKmUyGTz75BACQl5eHs2fPAgDu3LmD9PR0neOrjSCsWrUKFy9exKZNmwAAVVVV+PnnnwEAJSUliIiIEH0/MzOT/Q9yuRzR0dHYt28f25ZOnTqx7/LbzXEcHBwcarVNypAgEKYAlWDC6NG1BWHXrl24ceOG3uKpbQtCQUEBZs+ezaZ5QQAAiUSia1iM2rQg5ObmYsCAAQCAkJAQuLu7A1D04xcUFABQVLT6oLZdDEuXLmUyExgYiIkTJwJQVOzKsfXr10/l96+++ipkMhlKS0vx4Ycfsvnbt29n7/W1H0gQCFOASjBh9OgqCO3atYNUKkVUVJRe4qmtIISGhrIr3aioKEydOhVVVVXYs2cPDh06pJfYgNoJwvnz5xEZGQkA+OmnnyCTyQAA+/fvBwBER0djwoQJeomvtoLQvHlzFtdHH32E/Px8xMfHY8OGDcjPz2ffk0gk2Lx5s8rvO3bsCABISUmBk5MTALDfVVZWYvfu3Th16pTWcamDBIEwBagEE0aProLQt29f3L17V29Xh7UVhPfffx+HDh2CXC5Hz549ASgqq8zMTL3289dGEFJSUuDj4wO5XI7BgwejsLAQUqkU9+/fBwDExcWhe/fueomvtoLQpEkTlJeX49KlSwgICACguIdg6tSpKC8vZ9+7cOECHj16pPL71q1bAwBsbGzYPQghISEAgISEBMTFxeH8+fNax6UOEgTCFKASTBg9ugpCUVERpFKp3uKprSA0a9YMEolEpQJv3bo1cnNzdQ/s/6ntUwzl5eVITU0FANy/fx9lZWXss6KiIjg7O7NWBl2ojSBcvnwZDg4OuHv3LiorK0WfffPNN7hw4QKbHj58uNplyOVyJCYmAlC0GNy5c0f0ebt27fDgwQOt4tIECQJhClAJJoweU3jMMS8vD3369FH7WevWrbFnzx4do/qHunjMsaCgAMuXL9fL44m1EYQ+ffqobRUAgJ9//hnx8fFs2s3NrVZxdezYEYGBgbX6rTIkCIQpQCWYMHqed0GQSCTYvn07du7cqbfRHGvC1MZBuHnzJjw9PbFt2zZwHFfjd/mnHAwNCQJhClAJJoye510Q6htTEwRtMNTASMqQIBCmAJVgwughQdCOf7MgGAskCIQpQCWYMHpIELSDBMHwkCAQpgCVYMLo4QVhxowZCAsLM/jr448/NngMNb08PT0NHkNNr3HjxiEgIMDgcdTliwSBMAWoBBNGD7UgaAe1IBgeEgTCFKASTBg9JAjaQYJgeEgQCFOASjBh9JAgaAcJguEhQSBMASrBhNFDgqAdJAiGhwSBMAWoBBNGDwmCdpAgGB4SBMIUoBJMGD0kCNpBgmB4SBAIU4BKMGH0kCBoBwmC4SFBIEwBKsGE0aMPQSgpKdFbPLoIQn5+PioqKtR+xqdW1hV9CkJeXp7elsVT14JQXFysdv6jR48gk8nqbL1CSBAIU4BKMGH06CIIO3bsgLm5OcaOHau3eGorCAMGDEBmZiaCgoJUKvETJ05gxowZugcH/QpCy5Yt9bYsnroSBBcXF1hYWMDc3Fw0Pz8/H3Z2drh//z5mzZql9/WqgwSBMAWoBBNGj64tCFFRUQYXhEGDBrH3q1atQnp6OpuWSqVYtWqV0QnChg0b0KxZM70sS0hdtiDExMSoCELz5s3Z+59//rlO1qsMCQJhClAJJoye510QKioqYGZmhurqaly5ckXlcysrK5w7d86oBCE1NRXFxcXPvSDcvHkTn3zyCe7evYu0tLQ6Wac6SBAIU4BKMGH0PO+CkJubi9dff521GrRu3RqVlZUAwITBmARBLpfD398fAJ57QdiwYQO6du2KkpISVFVV4YsvvqiT9SpDgkCYAlSCCaPHFARBWFkEBgbC2dkZMpkMJ06cAGBcguDi4sLeP++CsH79enz88cds+ssvv6yTGy+VIUEgTAEqwYTR87wLQmlpKRo2bMimw8PDMWvWLOzduxfTp0/H9OnTMXDgQHTs2BFr167VOT5dBKGwsBDjx49ncTVq1AjTp0/XOSYh9SkIZ86cEbUa9OrVC+fOnauTdQshQSBMASrBhNGjqyCcP38eY8aM0Vs8tblJ8aOPPmLvrayscObMGdHnQUFBequI9fkUw/PWgnDx4kWVmxRbt27N3nfq1Akcx9XJuoWQIBCmAJVgwujRRRBGjx6N/v37o1+/fhgyZAikUqnO8dRGECoqKvDDDz/Az89P1IQPAAEBAejVqxd69+6NpUuX6hyfPgShqKgIffr0wXfffYd+/frpvDwhdSUIw4cPF+1rnuTkZNja2sLJyQkJCQl6X686SBAIU4BKMGH00EiK2kEjKRoeEgTCFKASTBg9JAjaQYJgeEgQCFOASjBh9JAgaAcJguEhQSBMASrBhNFDgqAdJAiGhwSBMAWoBBNGDwmCdpAgGB4SBMIUoBJMGD28IKxevRqZmZkGf3355ZcGj6GmV3R0tMFjqOllZWWFuLg4g8dRly8SBMIUoBJMGD28IEyYMAG+vr4Gf3Xp0sXgMdT0+uOPPwweQ02vESNGYOfOnQaPoy5fJAiEKUAlmDB6qItBOzIzMw0dQo1QFwNBPB9QCSaMHhIE7SBBMDwkCIQpQCWYMHpIELSDBMHwkCAQpgCVYMLoIUHQDhIEw0OCQJgCVIIJo4cEQTtIEAwPCQJhClAJJoweEgTtIEEwPCQIhClAJZgwekgQtIMEwfCQIBCmAJVgwujRRRByc3Ph6uqKuXPnIisrSy/x1EYQqqursXr1anh7e4tSDldUVGDTpk3YtWsXHj58qJf49CEIxcXFbDyFx48f6x6UgLoUhJycHGzYsEE0z9zcHP7+/ti7dy8cHBzqZL3KkCAQpgCVYMLoqa0gSCQSXLt2jU2/8MILqKqq0jkebQWB4zh88MEHbLpr164oKysDx3Ho2rUrm9+hQwdUV1frHJ+ugiCRSPDVV18BAEJDQ2FlZaVzTELqShAiIiIQExMDc3Nz0fw2bdrg008/xebNm/W+Tk2QIBCmAJVgwuiprSDcunVLdJLu27cvUlJSdI5HW0HIy8vDa6+9xqY9PDywc+dOlJWVYejQoWy+j48P3N3ddY5PV0H48ccfWasBx3GQy+U6xySkLlsQ1AnC4MGD62RdNUGCQJgCVIIJo0df9yA0btwYZWVlOsejrSAUFhaKBGHnzp2YMWMGCgsLMWXKFDb/3LlzWLx4sc7x6SoIr732Gv766y8cPnwYffr0gUwm0zkmIfUtCH369MHSpUthYWGB+/fv18l6lSFBIEwBKsGE0aMPQdi2bRtcXV31Ek9tuhg+//xzNj1kyBBYWFggIyMDU6dOZfOjo6MxY8YMnePTRRA4jkODBg2Qk5MDAEhLS8PMmTN1jklIfQtCbGwsAMW2vfXWW3WyXmVIEAhTgEowYfToKghpaWkIDg7WWzy1fYrh4MGD8PDwgJ+fH9avX4/i4mKMHz+efR4REQFra2ud49O1BaFJkybs/cOHD/Ve0dW3IJSXl7P3n3zySb08QUGCQJgCVIIJo0cXQSguLsahQ4fYdG5urs7x1EYQAgIC2PuuXbsiOzsbVVVV6NGjB5tva2uLI0eO6ByfroLw9ddfs26FnJwcdOjQQeeYhNSnIERGRmL+/Plsum3btpBIJHWybiEkCIQpQCWYMHp0eYrhxRdfZCdrMzMz0dVkbamNIPAikJqaiuXLl7P5kyZNYu8bN26sc2yA7oKQn5+POXPmAACcnJxEj2Xqg7oUBHd3d3zzzTeieStXrgQApKen6727RBMkCIQpQCWYMHpMYaAkiUSCEydOqL1J7tq1azh79qweIlOgj3EQSktLER4erpebOpWp74GSZDIZzp49W68DSJEgEKYAlWDC6DEFQahPaCRFw0OCQJgCVIIJo4cEQTtIEAwPCQJhClAJJoweEgTtIEEwPCQIhClAJZgwekgQtIMEwfCQIBCmAJVgwughQdAOEgTDQ4JAmAJUggmjhxcEetHreXsRxPMMlWDC6KEWBO2gFgTDQ4JAmAJUggmjhwRBO0gQDA8JAmEKUAkmjB4SBO0gQTA8JAiEKUAlmDB6SBC0gwTB8JAgEKYAlWDC6CFB0A4SBMNDgkCYAlSCCaOHBEE7SBAMDwkCYQpQCSaMHhIE7SBBMDwkCIQpQCWYMHp0EYT8/Hzs378fHh4eyMrK0ks8tREEqVSKPXv2IDAwEHfv3hV9VlZWhqCgIL3EBuguCFu3bsX+/ftx/Phx9tIndSkIBQUF2LVrl2hednY2goOD4eHhgYKCgjpZrzIkCIQpQCWYMHp0EYSPPvqIvX/xxRchkUh0jqc2gvDpp59CJpMBADp16oSqqioAQHh4OFJTUzFu3Did4+LRVRBGjhwJa2trLF++HMuXL8cXX3yhn8D+n7oShP379+PYsWMwNzcXzf/2228BAMXFxWjUqJHe16sOEgTCFKASTBg9ugjC/Pnz2XszMzNUV1frHI+2gpCXl4cmTZqw6Z07d8LLy4tNl5SUGJUgnD9/nr2Pjo5Gfn6+jhGJqcsWhJiYGBVB+OWXXwAApaWl9VZpkyAQpgCVYMLo0cc9CCEhIdi5c6de4tFWEB4/foymTZuyaU9PT8yaNYtNG5sgCAkODtbbsnjqWxB41q9fj9OnT9fJepUhQSBMASrBhNGjqyDcv38fu3fvhp2dHTiO0zkebQWB4zh8+OGHbPq7777DhAkT2LSxCsLYsWP1shxlDCEI9+7dw2+//YYdO3bUyXqVIUEgTAEqwYTRo6+nGNq2bYukpCSd46nNPQgSiQSBgYHw8vLCnj17sHbtWvaZMQqCRCJBixYtdA9GDYZqQeA4Ds2bN0dubm6drFsICQJhClAJJoye2grCyZMnRSfpbt26ISIiQud4aiMIkZGR7H2PHj2Qnp7Opo1RENLT09G1a1fdg1FDfQrC5s2b0bp1azb93nvvITY2tk7WLYQEgTAFqAQTRk9tBaGyshKbN29m002aNGFPEuhCbboYunXrBkBReQtvnASAxMRE9OrVS+e4ePQhCH///Tf69eunezBqqEtB2LVrF3r37s2mS0tL2SOkDx8+RPPmzetkvcqQIBCmAJVgwujRtYvh0KFDOHnypN7iqU0LQlVVFby8vJCWlqa3ODShD0EoKytDQkKC7sGoob4HSpJKpQgODsa5c+fqbZ0kCIQpQCWYMHpoJEXtoJEUDQ8JAmEKUAkmjB4SBO0gQTA8JAiEKUAlmDB6SBC0gwTB8JAgEKYAlWDC6CFB0A4SBMNDgkCYAlSCCaOHBEE7SBAMDwkCYQpQCSaMHl4QZsyYgbCwMIO/Pv74Y4PHUNPL09PT4DHU9Bo3bhwCAgIMHkddvkgQCFOASjBh9PCC8OuvvyI2Ntbgr88//9zgMdT0OnHihMFjqOk1d+5cREVFGTyOunyRIBCmAJVgwuihLgbtoC4Gw0OCQJgCVIIJo4cEQTtIEAwPCQJhClAJJoweEgTtIEEwPCQIhClAJZgwekgQtIMEwfCQIBCmAJVgwughQdAOEgTDQ4JAmAJUggmjhwRBO0gQDA8JAmEKUAkmjB59CUJubq5e4tFVEJQzOlZUVKCwsFCnZQrRpyDk5eXpbVk8dS0IxcXFKvMKCwtRUVFRZ+tUhgSBMAWoBBNGjz4EITw8HKtXr9ZLPLoIwo0bN9C5c2c2vWvXLqSmpiIzMxPff/+9HqLTryC0bNlSb8viqStBcHFxgYWFBczNzUXz582bh7S0NLi6umL27Nl6X686SBAIU4BKMGH06CoIFRUVOHTokMEFQSaTYfv27UwQOI6DjY0N+/zhw4fIyMjQOT59CYKzszOaNWuml2UJqcsWhJiYGJEgXL16FW5ubmz6zTffhFwur5N1CyFBIEwBKsGE0aOrIOzcuRO3bt0yuCD89ttvyM7OFgnCO++8gw0bNgAAhg8fDplMpnN8+hCE1NRUFBcXP/eCkJeXx/5fAGjTpg3Ky8vrZN1CSBAIU4BKMGH06CIIN2/eBMdxBheEzMxMyOVykSAAQGlpKRo1aoQGDRro7R4JXQVBLpfD398fAJ57QRBy7949tGrVqk7WqwwJAmEKUAkmjJ7aCkJVVRViY2MBwKCCIJfLERoaCgAqLQjTp0+HRCKBt7c3GjRogJSUFJ3j01UQXFxc2HtTEoQuXbrUS+sBQIJAmAZUggmjp7aCsHPnTkyfPh3Tp0/H4MGD0a1bN9ja2uocj7aCcOXKFRbHqFGj0LRpUyxZsgQlJSX4888/2feKioqwbNkynePTRRAKCwsxfvx4Fm+jRo0wffp0nWMSUt+CIJfLMWXKFDZdXV1dJ+sWQoJAmAJUggmjRx9PMYSEhGDVqlV6iUeXpxguXryITp06AQDKysrg6enJPisvL8eRI0d0DU+vTzE8by0IFy9eVBEES0tL3Lx5E/Hx8Th16lSdrFcZEgTCFKASTBg9ugqCu7s7evXqhd69e2PJkiU6x1NbQYiJiUHv3r3Rp08fTJ48GQBw+PBh/PHHH9i3bx9cXV11jg3QjyAUFRWhT58++O6779CvXz/dgxJQV4IwfPhw9O/fH/369cOQIUMAAJGRkejWrZvoVR+QIBCmAJVgwuihkRS1g0ZSNDwkCIQpQCWYMHpIELSDBMHwkCAQpgCVYMLoIUHQDhIEw0OCQJgCVIIJo4cEQTtIEAwPCQJhClAJJoweEgTtIEEwPCQIhClAJZgwekgQtIMEwfCQIBCmAJVgwujhBWHChAnw9fU1+KtLly4Gj6Gm1x9//GHwGGp6jRgxAjt37jR4HHX5IkEgTAEqwYTRQy0I2kEtCIaHBIEwBagEE0YPCYJ2kCAYHhIEwhSgEkwYPSQI2kGCYHhIEAhTgEowYfSQIGgHCYLhIUEgTAEqwYTRQ4KgHSQIhocEgTAFqAQTRg8JgnaQIBgeEgTCFKASTBg9JAjaQYJgeEgQCFOASjBh9OgiCOPHj4ePjw8CAwOxatUqvcRTG0HIz8+Hl5cXXFxcEB4ezuZnZ2fD29sb69evx5UrV/QSnz4Ewc3NDX5+fnBxcdE9ICXqQxASEhIQEhKiMj8mJgaXL1+u03UDJAiEaUAlmDB6dBGENm3a4LPPPsPKlSv1Fk9tBOHTTz9l783MzJCSkgKO49C+fXvR/NLSUp3j01UQxo0bh7/++gsAMHfuXPj6+uock5C6FoSzZ8/Czc0Nzs7OovnR0dGwtrbGoUOH6mzdPCQIhClAJZgwenQRhK5du+o9ntoIQmBgIHtvZmaGjIwMABBVvmZmZnjy5Imu4eksCJcuXUJWVhYAYPLkydizZ4/OMQmpjxYEdYIAgASBILSASjBh9OgiCB9//DEWLFiAuXPnIjExUS/x1PYehMrKShw/fhzW1tai+RUVFfDy8sK+ffv0EJ1+uhhkMhmKiorw8ccf6x6QEiQIBPF8QCWYMHp0EYTz58+z9x07dkR1dbXO8dRWEPLz83HmzBkMHDgQUqmUzc/NzcWRI0cwYcIEnWMD9CMIVVVVSEpKwrfffotHjx7pHpQAEgSCeD6gEkwYPboIQklJCXs/YsQI1rSvC7o+xfDNN9/A3t5eZX6DBg2wdetWnZYN6PcphmvXruHtt9/W2/IAEgSCeF6gEkwYPbUVhPj4eAwdOpRNf/311ygoKNA5Hm0FIS8vT1RZDBs2DEuXLkVxcbFofosWLbBu3Tqd49NVEF555RXcuXMHABAXF4emTZvqHJMQEgSCeD6gEkwYPbq0IEybNg2Aok9dX+MXaLscjuOwbNkyNt3g/9q5n1DY3jCA424pWegqS1sLhYWVP8XSLGwoQuKU8S/NwlbDAmXBzkKRZKGwmmRlRU3MJCUrKSIp+U9EhOe3cpoxunXmPed3Xm/fT53ynoXzLJ7u/Tb3zvnzR15eXuTj40OGh4dFROTj40MyMzNdmU81EILBoP1zcXGxbG1tKU6U7P8IhFAoJO3t7Sn36+vrf/z0xm0EAkzABkN7qi9K2tzclP39fdfmSTc0tre3JRqNptyPxWKufjffjX9iOD4+lrW1NVe+dvkdL0oCfgc2GNrjTYrO8CZF/xEIMAEbDO0RCM4QCP4jEGACNhjaIxCcIRD8RyDABGwwtEcgOEMg+I9AgAnYYGiPQHCGQPAfgQATsMHQ3lcgcHH9tgv4zdhgaI9PEJzhEwT/EQgwARsM7REIzhAI/iMQYAI2GNojEJwhEPxHIMAEbDC0RyA4QyD4j0CACdhgaI9AcIZA8B+BABOwwdAegeAMgeA/AgEmYIOhPQLBGQLBfwQCTMAGQ3tuBMLR0ZG8vLy4Mo9KINze3v547+zsTGGiZG4Fgld/iXsdCBcXFyn3zs/P5fLy0rNnfkcgwARsMLSnGgiWZcnDw4OMjo7K6+ur8jzpBMLs7KzU1NRIZWVl0v3h4WG5uLiQu7s7KSkpUZ5NRD0Q4vG4NDY2SnZ2tivzfOdVIITDYQkEAtLQ0JB0v66uTq6uruT09FTC4bDrz/0JgQATsMHQnkog5OTk2D8PDg7K29ub8jzpfoJwc3MjFRUV9vnt7U3Kysrsczgclmg0qjqea58g5ObmuvJ7vvPyE4Stra2kQLi8vJTa2lr7XFVVJZ+fn548OxGBABOwwdBeuoFweHgoGRkZcn5+LrFYzLV53AqE+/t7aWlpsc9ra2syMDCgOh6BkBAIExMTMjQ0ZJ8bGhpkY2PDk2cnIhBgAjYY2ks3EFZWViQvL09ubm5ERKS4uFje39+V53ErEE5OTsSyLPscjUals7NTcToCITEQ+vv7ZWxszD63trbK3NycJ89ORCDABGwwtJduIKyurib9Id3T0yN7e3vK87gVCNfX19LW1maf19fXpa+vT3U8AiEhEAYGBmRkZMQ+Nzc3y9LSkifPTkQgwARsMLSXbiAcHBxIZmamfQ6FQhKJRJTncSsQHh8fJRAI2OeZmRmZmJhQHY9ASAiE5eVlCQaD9jkQCMjR0ZEnz05EIMAEbDC0p/KfFLOysuyfq6ur5fn5WXkelUAoLy+3z5+fn5Kfn2+fS0tL5fr6WnU81wLh79+/rvye77wMhM3NzaRAeH9/l8LCQvtcUFDgyXO/IxBgAjYY2lMJhKenJwmFQjI1NeXKNwRE0guEyclJsSxLLMuSrq4u+7v6p6enMj4+LouLi7K+vu7KfKqBsLOzI8FgUCzLko6ODonH467M9cWrQOjt7RXLsqS9vV26u7vt+7u7uzI/Py9TU1NyeHjo+nN/QiDABGwwtMebFJ3hTYr+IxBgAjYY2iMQnCEQ/EcgwARsMLRHIDhDIPiPQIAJ2GBoj0BwhkDwH4EAE7DB0B6B4AyB4D8CASZgg6G9r0Do6OiQSCTi+1VUVOT7DP+6pqenfZ/hX1dTU5MsLCz4PoeXF4EAE7DB0N5XIHBx/bYL+M3YYAAAkIJAAAAAKQgEAACQgkAAAAApCAQAAJCCQAAAACkIBAAAkOI/WTANK7NU9qIAAAAASUVORK5CYII=;" vertex="1" parent="WIyWlLk6GJQsqaUBKTNV-1">
          <mxGeometry x="-10" y="10" width="568.99" height="360" as="geometry" />
        </mxCell>
        <mxCell id="o33dY_JwKB8hvGENRaqP-3" value="Ex29 &amp;nbsp; &amp;nbsp; &amp;nbsp; &amp;nbsp; &amp;nbsp;&amp;nbsp; Stuart Griffin, Greg Dews, Larsen Close" style="text;strokeColor=none;fillColor=none;html=1;fontSize=24;fontStyle=1;verticalAlign=middle;align=center;" vertex="1" parent="WIyWlLk6GJQsqaUBKTNV-1">
          <mxGeometry x="980" y="10" width="690" height="40" as="geometry" />
        </mxCell>
        <mxCell id="o33dY_JwKB8hvGENRaqP-7" value="&lt;div align=&quot;justify&quot;&gt;&lt;span style=&quot;font-weight: normal&quot;&gt;Bound: max profit still possible given nodes context &lt;/span&gt;&lt;br&gt;&lt;/div&gt;" style="text;strokeColor=none;fillColor=none;html=1;fontSize=24;fontStyle=1;verticalAlign=middle;align=left;" vertex="1" parent="WIyWlLk6GJQsqaUBKTNV-1">
          <mxGeometry x="1030" y="120" width="550" height="60" as="geometry" />
        </mxCell>
        <mxCell id="o33dY_JwKB8hvGENRaqP-8" value="Vertical Container" style="swimlane;movable=1;resizable=1;rotatable=1;deletable=1;editable=1;connectable=1;" vertex="1" parent="WIyWlLk6GJQsqaUBKTNV-1">
          <mxGeometry x="1080" y="290" width="200" height="221" as="geometry">
            <mxRectangle x="770" width="140" height="23" as="alternateBounds" />
          </mxGeometry>
        </mxCell>
        <mxCell id="o33dY_JwKB8hvGENRaqP-9" value="" style="shape=crossbar;whiteSpace=wrap;html=1;rounded=1;movable=1;resizable=1;rotatable=1;deletable=1;editable=1;connectable=1;" vertex="1" parent="o33dY_JwKB8hvGENRaqP-8">
          <mxGeometry y="90" width="200" height="20" as="geometry" />
        </mxCell>
        <mxCell id="o33dY_JwKB8hvGENRaqP-10" value="" style="line;strokeWidth=2;html=1;movable=1;resizable=1;rotatable=1;deletable=1;editable=1;connectable=1;" vertex="1" parent="o33dY_JwKB8hvGENRaqP-8">
          <mxGeometry y="149" width="200" height="10" as="geometry" />
        </mxCell>
        <mxCell id="o33dY_JwKB8hvGENRaqP-11" value="" style="line;strokeWidth=2;direction=south;html=1;movable=1;resizable=1;rotatable=1;deletable=1;editable=1;connectable=1;" vertex="1" parent="o33dY_JwKB8hvGENRaqP-8">
          <mxGeometry x="95" y="99" width="10" height="51" as="geometry" />
        </mxCell>
        <object label="&lt;strike&gt;{ 1 } &lt;/strike&gt;" placeholders="1" ChooseOrRejectList="{  }" id="o33dY_JwKB8hvGENRaqP-12">
          <mxCell style="text;strokeColor=none;fillColor=none;align=left;verticalAlign=top;spacingLeft=4;spacingRight=4;overflow=hidden;rotatable=1;points=[[0,0.5],[1,0.5]];portConstraint=eastwest;fontSize=20;html=1;movable=1;resizable=1;deletable=1;editable=1;connectable=1;" vertex="1" parent="o33dY_JwKB8hvGENRaqP-8">
            <mxGeometry y="48" width="200" height="51" as="geometry" />
          </mxCell>
        </object>
        <object label="Node Number (1)" placeholders="1" nodeNumber="" id="o33dY_JwKB8hvGENRaqP-13">
          <mxCell style="text;align=center;fontStyle=1;verticalAlign=middle;spacingLeft=3;spacingRight=3;strokeColor=none;rotatable=1;points=[[0,0.5],[1,0.5]];portConstraint=eastwest;fontSize=20;movable=1;resizable=1;deletable=1;editable=1;connectable=1;" vertex="1" parent="o33dY_JwKB8hvGENRaqP-8">
            <mxGeometry y="23" width="200" height="26" as="geometry" />
          </mxCell>
        </object>
        <object label="Weight: 0" placeholders="1" weight="" id="o33dY_JwKB8hvGENRaqP-14">
          <mxCell style="label;fontStyle=0;strokeColor=none;fillColor=none;align=left;verticalAlign=top;overflow=hidden;spacingLeft=5;spacingRight=4;rotatable=1;points=[[0,0.5],[1,0.5]];fontSize=20;movable=1;resizable=1;deletable=1;editable=1;connectable=1;" vertex="1" parent="o33dY_JwKB8hvGENRaqP-8">
            <mxGeometry x="100" y="99" width="100" height="50" as="geometry" />
          </mxCell>
        </object>
        <object label="Bound: Possible profit" placeholders="1" profitAchieved="" id="o33dY_JwKB8hvGENRaqP-15">
          <mxCell style="label;fontStyle=0;strokeColor=none;fillColor=none;align=left;verticalAlign=top;overflow=hidden;spacingLeft=4;spacingRight=4;rotatable=1;points=[[0,0.5],[1,0.5]];portConstraint=eastwest;fontSize=14;movable=1;resizable=1;deletable=1;editable=1;connectable=1;" vertex="1" parent="o33dY_JwKB8hvGENRaqP-8">
            <mxGeometry y="160" width="200" height="61" as="geometry" />
          </mxCell>
        </object>
        <object label="Profit: $0" placeholders="1" weight="" id="o33dY_JwKB8hvGENRaqP-16">
          <mxCell style="label;fontStyle=0;strokeColor=none;fillColor=none;align=left;verticalAlign=top;overflow=hidden;spacingLeft=10;spacingRight=4;rotatable=1;points=[[0,0.5],[1,0.5]];fontSize=20;movable=1;resizable=1;deletable=1;editable=1;connectable=1;" vertex="1" parent="o33dY_JwKB8hvGENRaqP-8">
            <mxGeometry y="100" width="100" height="50" as="geometry" />
          </mxCell>
        </object>
        <UserObject label="90+91+10" placeholders="1" name="Variable" id="o33dY_JwKB8hvGENRaqP-17">
          <mxCell style="text;html=1;strokeColor=none;fillColor=none;align=center;verticalAlign=middle;whiteSpace=wrap;overflow=hidden;fontSize=14;movable=1;resizable=1;rotatable=1;deletable=1;editable=1;connectable=1;" vertex="1" parent="o33dY_JwKB8hvGENRaqP-8">
            <mxGeometry x="10" y="180" width="190" height="41" as="geometry" />
          </mxCell>
        </UserObject>
        <mxCell id="o33dY_JwKB8hvGENRaqP-18" value="Vertical Container" style="swimlane;" vertex="1" parent="WIyWlLk6GJQsqaUBKTNV-1">
          <mxGeometry x="580" y="290" width="200" height="221" as="geometry">
            <mxRectangle x="770" width="140" height="23" as="alternateBounds" />
          </mxGeometry>
        </mxCell>
        <mxCell id="o33dY_JwKB8hvGENRaqP-19" value="" style="shape=crossbar;whiteSpace=wrap;html=1;rounded=1;" vertex="1" parent="o33dY_JwKB8hvGENRaqP-18">
          <mxGeometry y="90" width="200" height="20" as="geometry" />
        </mxCell>
        <mxCell id="o33dY_JwKB8hvGENRaqP-20" value="" style="line;strokeWidth=2;html=1;" vertex="1" parent="o33dY_JwKB8hvGENRaqP-18">
          <mxGeometry y="149" width="200" height="10" as="geometry" />
        </mxCell>
        <mxCell id="o33dY_JwKB8hvGENRaqP-21" value="" style="line;strokeWidth=2;direction=south;html=1;" vertex="1" parent="o33dY_JwKB8hvGENRaqP-18">
          <mxGeometry x="95" y="99" width="10" height="51" as="geometry" />
        </mxCell>
        <object label="{ 1 } " placeholders="1" ChooseOrRejectList="{  }" id="o33dY_JwKB8hvGENRaqP-22">
          <mxCell style="text;strokeColor=none;fillColor=none;align=left;verticalAlign=top;spacingLeft=4;spacingRight=4;overflow=hidden;rotatable=0;points=[[0,0.5],[1,0.5]];portConstraint=eastwest;fontSize=20;html=1;" vertex="1" parent="o33dY_JwKB8hvGENRaqP-18">
            <mxGeometry y="48" width="200" height="51" as="geometry" />
          </mxCell>
        </object>
        <object label="Node Number (0)" placeholders="1" nodeNumber="" id="o33dY_JwKB8hvGENRaqP-23">
          <mxCell style="text;align=center;fontStyle=1;verticalAlign=middle;spacingLeft=3;spacingRight=3;strokeColor=none;rotatable=0;points=[[0,0.5],[1,0.5]];portConstraint=eastwest;fontSize=20;" vertex="1" parent="o33dY_JwKB8hvGENRaqP-18">
            <mxGeometry y="23" width="200" height="26" as="geometry" />
          </mxCell>
        </object>
        <object label="Weight: 4" placeholders="1" weight="" id="o33dY_JwKB8hvGENRaqP-24">
          <mxCell style="label;fontStyle=0;strokeColor=none;fillColor=none;align=left;verticalAlign=top;overflow=hidden;spacingLeft=5;spacingRight=4;rotatable=0;points=[[0,0.5],[1,0.5]];fontSize=20;" vertex="1" parent="o33dY_JwKB8hvGENRaqP-18">
            <mxGeometry x="100" y="99" width="100" height="50" as="geometry" />
          </mxCell>
        </object>
        <object label="Bound: Possible profit" placeholders="1" profitAchieved="" id="o33dY_JwKB8hvGENRaqP-25">
          <mxCell style="label;fontStyle=0;strokeColor=none;fillColor=none;align=left;verticalAlign=top;overflow=hidden;spacingLeft=4;spacingRight=4;rotatable=0;points=[[0,0.5],[1,0.5]];portConstraint=eastwest;fontSize=14;" vertex="1" parent="o33dY_JwKB8hvGENRaqP-18">
            <mxGeometry y="160" width="200" height="61" as="geometry" />
          </mxCell>
        </object>
        <object label="Profit: $64" placeholders="1" weight="" id="o33dY_JwKB8hvGENRaqP-26">
          <mxCell style="label;fontStyle=0;strokeColor=none;fillColor=none;align=left;verticalAlign=top;overflow=hidden;spacingLeft=0;spacingRight=4;rotatable=0;points=[[0,0.5],[1,0.5]];fontSize=20;" vertex="1" parent="o33dY_JwKB8hvGENRaqP-18">
            <mxGeometry y="100" width="100" height="50" as="geometry" />
          </mxCell>
        </object>
        <UserObject label="64+90+48+10=212" placeholders="1" name="Variable" id="o33dY_JwKB8hvGENRaqP-27">
          <mxCell style="text;html=1;strokeColor=none;fillColor=none;align=center;verticalAlign=middle;whiteSpace=wrap;overflow=hidden;fontSize=14;" vertex="1" parent="o33dY_JwKB8hvGENRaqP-18">
            <mxGeometry x="10" y="180" width="190" height="41" as="geometry" />
          </mxCell>
        </UserObject>
      </root>
    </mxGraphModel>
  </diagram>
</mxfile>
